<svg width="8" height="14" viewBox="0 0 8 14" fill="none" xmlns="http://www.w3.org/2000/svg">
<path d="M2.08612 7.00437L7.71292 12.0556C7.90431 12.2274 7.99681 12.4279 7.99043 12.6569C7.98405 12.886 7.88517 13.0865 7.69378 13.2583C7.50239 13.4301 7.27911 13.516 7.02392 13.516C6.76874 13.516 6.54545 13.4301 6.35407 13.2583L0.45933 7.98369C0.30622 7.84624 0.191388 7.69161 0.114833 7.5198C0.0382775 7.34799 0 7.17618 0 7.00437C0 6.83256 0.0382775 6.66075 0.114833 6.48894C0.191388 6.31713 0.30622 6.1625 0.45933 6.02505L6.35407 0.733289C6.54545 0.561479 6.77193 0.478437 7.03349 0.484164C7.29506 0.489891 7.52153 0.57866 7.71292 0.75047C7.90431 0.92228 8 1.12273 8 1.35181C8 1.58089 7.90431 1.78133 7.71292 1.95314L2.08612 7.00437Z" fill="#76777F"/>
</svg>
