<svg width="24" height="24" viewBox="0 0 24 24" fill="none" xmlns="http://www.w3.org/2000/svg">
<mask id="mask0_1364_3597" style="mask-type:alpha" maskUnits="userSpaceOnUse" x="0" y="0" width="24" height="24">
<rect width="24" height="24" fill="#D9D9D9"/>
</mask>
<g mask="url(#mask0_1364_3597)">
<path d="M9.54922 12.0429L16.8992 19.0477C17.1492 19.286 17.2701 19.564 17.2617 19.8816C17.2534 20.1993 17.1242 20.4773 16.8742 20.7155C16.6242 20.9538 16.3326 21.0729 15.9992 21.0729C15.6659 21.0729 15.3742 20.9538 15.1242 20.7155L7.42422 13.4009C7.22422 13.2103 7.07422 12.9959 6.97422 12.7576C6.87422 12.5194 6.82422 12.2811 6.82422 12.0429C6.82422 11.8046 6.87422 11.5663 6.97422 11.3281C7.07422 11.0898 7.22422 10.8754 7.42422 10.6848L15.1242 3.34635C15.3742 3.10809 15.6701 2.99293 16.0117 3.00087C16.3534 3.00881 16.6492 3.13192 16.8992 3.37018C17.1492 3.60844 17.2742 3.88641 17.2742 4.20409C17.2742 4.52177 17.1492 4.79974 16.8992 5.038L9.54922 12.0429Z" fill="#1A1A1B"/>
</g>
</svg>
