<svg width="8" height="14" viewBox="0 0 8 14" fill="none" xmlns="http://www.w3.org/2000/svg">
<path d="M5.91387 6.99563L0.28708 1.9444C0.0956927 1.77259 0.00318858 1.57215 0.00956814 1.34307C0.0159477 1.11399 0.114831 0.913541 0.306219 0.741731C0.497606 0.56992 0.720892 0.484015 0.976075 0.484015C1.23126 0.484015 1.45454 0.56992 1.64593 0.74173L7.54067 6.01631C7.69378 6.15376 7.80861 6.30839 7.88517 6.4802C7.96172 6.65201 8 6.82382 8 6.99563C8 7.16744 7.96172 7.33925 7.88517 7.51106C7.80861 7.68287 7.69378 7.8375 7.54067 7.97495L1.64593 13.2667C1.45455 13.4385 1.22807 13.5216 0.966507 13.5158C0.704944 13.5101 0.478469 13.4213 0.287081 13.2495C0.0956937 13.0777 -8.26855e-08 12.8773 -1.02712e-07 12.6482C-1.22739e-07 12.4191 0.0956936 12.2187 0.287081 12.0469L5.91387 6.99563Z" fill="#1A1A1B"/>
</svg>
