<svg width="125" height="27" viewBox="0 0 125 27" fill="none" xmlns="http://www.w3.org/2000/svg">
<path d="M4.53067 25.124C4.28267 25.124 4.08978 25.0964 3.952 25.0413H3.208H2.588H2.29867L0.728 24.6693L0.604 24.38V23.9667L0.562667 22.8507C0.507556 22.3547 0.48 21.9276 0.48 21.5693L0.438667 18.428C0.411111 18.1249 0.397333 17.7116 0.397333 17.188C0.397333 15.9204 0.438667 14.6942 0.521333 13.5093C0.576444 12.7378 0.604 11.4978 0.604 9.78933C0.604 9.51378 0.576444 9.27956 0.521333 9.08667V8.67333L0.48 8.42533C0.48 7.79156 0.521333 7.17156 0.604 6.56533L0.645333 4.37467L0.604 3.38267V2.432C0.521333 2.34933 0.48 2.25289 0.48 2.14267C0.48 1.72933 0.810667 1.42622 1.472 1.23333C1.85778 1.12311 2.34 1.068 2.91867 1.068H8.95333L11.764 1.10933C11.764 1.10933 11.7778 1.12311 11.8053 1.15067C11.8604 1.17822 11.9156 1.21956 11.9707 1.27467C12.1911 1.49511 12.4116 1.78444 12.632 2.14267C12.88 2.556 13.0867 2.99689 13.252 3.46533C13.4449 4.01644 13.8169 4.98089 14.368 6.35867C14.8089 7.48844 15.1809 8.384 15.484 9.04533C15.7044 9.76178 15.9524 10.12 16.228 10.12C16.476 10.12 16.6689 9.94089 16.8067 9.58267C16.8618 9.52755 16.9444 9.34844 17.0547 9.04533L17.716 7.516C17.7711 7.40578 17.964 6.99244 18.2947 6.276C18.3773 6.13822 18.6116 5.64222 18.9973 4.788L19.6173 3.46533C19.6724 3.3 19.7551 3.09333 19.8653 2.84533C19.9756 2.59733 20.0996 2.36311 20.2373 2.14267C20.5129 1.70178 20.7333 1.41244 20.8987 1.27467C20.9538 1.16444 21.0364 1.10933 21.1467 1.10933L23.9573 1.068H29.9507H30.4467H30.8187H31.3147C31.4249 1.09556 31.6729 1.10933 32.0587 1.10933C32.0862 1.10933 32.1413 1.28844 32.224 1.64667C32.3067 3.052 32.348 4.18178 32.348 5.036C32.4031 6.08311 32.4307 7.66756 32.4307 9.78933V11.856C32.4307 13.096 32.3204 14.8733 32.1 17.188V18.428C32.1276 18.7862 32.1413 19.2822 32.1413 19.916L32.1827 21.652C32.2102 21.9827 32.224 22.4236 32.224 22.9747C32.224 23.4707 32.2378 23.8013 32.2653 23.9667V24.38L32.1413 24.6693L30.5707 25.0413H30.24H29.6613H28.9587C28.7933 25.0964 28.5867 25.124 28.3387 25.124C27.264 25.124 26.1618 25.0827 25.032 25C23.9022 24.8898 23.1996 24.8209 22.924 24.7933L22.7587 24.8347H22.552C22.3867 24.8347 22.304 24.5729 22.304 24.0493C22.1662 23.3329 22.0973 21.7484 22.0973 19.296C22.0422 18.6071 22.0147 17.6702 22.0147 16.4853C22.0147 16.2924 21.9182 16.196 21.7253 16.196C21.6427 16.196 21.56 16.3062 21.4773 16.5267C21.064 17.5187 20.816 18.1387 20.7333 18.3867L20.444 19.2547L20.1133 19.916C19.6173 21.0182 19.08 21.8724 18.5013 22.4787C18.1431 22.8369 17.7711 23.016 17.3853 23.016H16.848H16.104C15.7458 23.016 15.484 23.0022 15.3187 22.9747C15.0156 22.9747 14.7951 22.9609 14.6573 22.9333C13.6929 21.4453 12.7973 19.8058 11.9707 18.0147C11.8604 17.684 11.7502 17.4084 11.64 17.188C11.5573 16.9676 11.4884 16.7747 11.4333 16.6093C11.2404 16.3338 11.144 16.196 11.144 16.196C10.9511 16.196 10.8547 16.2924 10.8547 16.4853V18.1387C10.8547 19.8196 10.8409 21.032 10.8133 21.776C10.8133 22.9609 10.7307 23.8427 10.5653 24.4213C10.5378 24.5316 10.4964 24.628 10.4413 24.7107C10.4138 24.7933 10.3724 24.8347 10.3173 24.8347H10.1107L9.94533 24.7933C9.69733 24.8209 9.00844 24.8898 7.87867 25C6.77644 25.0827 5.66044 25.124 4.53067 25.124ZM37.7068 24.8347C37.6517 24.8347 37.6104 24.7796 37.5828 24.6693C37.3899 24.4213 37.2521 24.1182 37.1695 23.76C37.0868 23.6222 37.0179 23.4431 36.9628 23.2227C36.7148 22.7267 36.5357 22.0378 36.4255 21.156C36.3152 19.8884 36.2601 18.8827 36.2601 18.1387C36.2326 17.808 36.2188 17.3533 36.2188 16.7747V15.7827C36.2188 14.956 36.205 14.3084 36.1775 13.84C36.1499 13.344 36.1361 12.3658 36.1361 10.9053C36.1361 6.99244 36.2188 3.97511 36.3841 1.85333C36.3841 1.52267 36.8526 1.27467 37.7895 1.10933H39.0295H40.0628C41.6335 1.10933 42.8046 1.13689 43.5761 1.192C44.7335 1.27467 45.9046 1.316 47.0895 1.316C47.365 1.316 47.5717 1.30222 47.7095 1.27467H48.3295L48.5361 1.44C49.4455 1.24711 50.3824 1.12311 51.3468 1.068C52.3112 1.01289 53.4824 0.985333 54.8601 0.985333C54.9152 0.985333 54.9841 1.02667 55.0668 1.10933H56.3895C56.6099 1.10933 56.7752 1.23333 56.8855 1.48133C57.0232 1.72933 57.1335 2.08756 57.2161 2.556C57.3264 2.91422 57.409 3.35511 57.4641 3.87867C57.5744 4.56755 57.6708 5.02222 57.7535 5.24267C57.7535 6.01422 57.6157 6.4 57.3401 6.4C57.3126 6.4 57.2712 6.35867 57.2161 6.276L57.0508 6.23467C56.913 6.20711 56.7615 6.22089 56.5961 6.276C56.4308 6.35867 56.2517 6.4 56.0588 6.4C55.8935 6.4 55.7557 6.35867 55.6455 6.276C55.5904 6.24844 55.4664 6.23467 55.2735 6.23467C55.0255 6.23467 54.7361 6.276 54.4055 6.35867C54.2952 6.38622 54.0748 6.42756 53.7441 6.48267C53.441 6.53778 53.0828 6.56533 52.6695 6.56533C51.4846 6.56533 50.6304 6.59289 50.1068 6.648C49.8037 6.67556 49.5144 6.75822 49.2388 6.896V6.81333C49.1286 6.81333 49.0321 6.95111 48.9495 7.22667C48.7566 7.69511 48.6326 8.34267 48.5775 9.16933C48.5499 9.41733 48.5361 9.69289 48.5361 9.996C48.5361 10.2991 48.5775 10.5058 48.6601 10.616C48.7704 10.7262 48.9357 10.7813 49.1561 10.7813C49.3215 10.7813 49.4592 10.7262 49.5695 10.616C49.6246 10.616 49.6935 10.6298 49.7761 10.6573C49.8588 10.6849 49.9277 10.7262 49.9828 10.7813H53.4961C53.5237 10.7262 53.565 10.6849 53.6201 10.6573C53.6752 10.6298 53.7304 10.616 53.7855 10.616C54.061 10.616 54.2677 10.6573 54.4055 10.74C54.5708 10.8227 54.9015 10.9053 55.3975 10.988C55.673 10.988 55.8659 11.0707 55.9761 11.236C56.1139 11.4289 56.1828 11.608 56.1828 11.7733L57.0508 14.5013C57.1335 14.9422 56.7201 15.2316 55.8108 15.3693C55.2872 15.4796 54.2815 15.5347 52.7935 15.5347H51.0161H49.7761C49.3904 15.5347 49.101 15.5622 48.9081 15.6173C48.7152 15.6449 48.5912 15.7413 48.5361 15.9067C48.4259 16.0444 48.3708 16.2649 48.3708 16.568V16.7333C48.3708 16.8711 48.3846 16.9676 48.4121 17.0227L48.3708 17.932C48.3432 18.1249 48.3295 18.4142 48.3295 18.8V19.2133V19.5853V19.8333C49.5695 19.8333 50.837 19.792 52.1321 19.7093C53.3997 19.6267 54.6535 19.5853 55.8935 19.5853C55.9761 19.5853 56.045 19.6542 56.1001 19.792C56.1552 19.9022 56.1828 20.04 56.1828 20.2053C56.2379 20.3707 56.2655 20.5498 56.2655 20.7427C56.3206 21.156 56.4032 21.5418 56.5135 21.9L56.8028 23.0987V23.9253V24.0493V24.38L56.4721 24.6693H56.1828H56.0588C55.7557 24.6693 55.5628 24.6556 55.4801 24.628C55.3975 24.5729 55.301 24.5453 55.1908 24.5453C55.1357 24.5729 55.053 24.6142 54.9428 24.6693C54.8326 24.7244 54.7361 24.7796 54.6535 24.8347V24.628L54.1575 24.6693H53.5375C53.4272 24.6693 53.3446 24.6418 53.2895 24.5867L52.9588 24.5453C51.9392 24.5453 51.2228 24.6418 50.8095 24.8347H37.7068ZM65.3924 25.124C65.1444 25.124 64.9515 25.0964 64.8137 25.0413H64.0697H63.4497H63.1604L61.5897 24.6693L61.4657 24.38V23.9667L61.4244 22.8507C61.3693 22.3547 61.3417 21.9276 61.3417 21.5693L61.3004 18.428C61.2728 18.1249 61.2591 17.7116 61.2591 17.188C61.2591 15.9204 61.3004 14.6942 61.3831 13.5093C61.4382 12.7378 61.4657 11.4978 61.4657 9.78933C61.4657 9.51378 61.4382 9.27956 61.3831 9.08667V8.67333L61.3417 8.42533C61.3417 7.79156 61.3831 7.17156 61.4657 6.56533L61.5071 4.37467L61.4657 3.38267V2.432C61.3831 2.34933 61.3417 2.25289 61.3417 2.14267C61.3417 1.72933 61.6724 1.42622 62.3337 1.23333C62.7195 1.12311 63.2017 1.068 63.7804 1.068H69.8151L72.6257 1.10933C72.6257 1.10933 72.6395 1.12311 72.6671 1.15067C72.7222 1.17822 72.7773 1.21956 72.8324 1.27467C73.0528 1.49511 73.2733 1.78444 73.4937 2.14267C73.7417 2.556 73.9484 2.99689 74.1137 3.46533C74.3066 4.01644 74.6786 4.98089 75.2297 6.35867C75.6706 7.48844 76.0426 8.384 76.3457 9.04533C76.5662 9.76178 76.8142 10.12 77.0897 10.12C77.3377 10.12 77.5306 9.94089 77.6684 9.58267C77.7235 9.52755 77.8062 9.34844 77.9164 9.04533L78.5777 7.516C78.6328 7.40578 78.8257 6.99244 79.1564 6.276C79.2391 6.13822 79.4733 5.64222 79.8591 4.788L80.479 3.46533C80.5342 3.3 80.6168 3.09333 80.7271 2.84533C80.8373 2.59733 80.9613 2.36311 81.0991 2.14267C81.3746 1.70178 81.5951 1.41244 81.7604 1.27467C81.8155 1.16444 81.8982 1.10933 82.0084 1.10933L84.8191 1.068H90.8124H91.3084H91.6804H92.1764C92.2866 1.09556 92.5346 1.10933 92.9204 1.10933C92.9479 1.10933 93.0031 1.28844 93.0857 1.64667C93.1684 3.052 93.2097 4.18178 93.2097 5.036C93.2648 6.08311 93.2924 7.66756 93.2924 9.78933V11.856C93.2924 13.096 93.1822 14.8733 92.9617 17.188V18.428C92.9893 18.7862 93.0031 19.2822 93.0031 19.916L93.0444 21.652C93.0719 21.9827 93.0857 22.4236 93.0857 22.9747C93.0857 23.4707 93.0995 23.8013 93.1271 23.9667V24.38L93.0031 24.6693L91.4324 25.0413H91.1017H90.5231H89.8204C89.6551 25.0964 89.4484 25.124 89.2004 25.124C88.1257 25.124 87.0235 25.0827 85.8937 25C84.7639 24.8898 84.0613 24.8209 83.7857 24.7933L83.6204 24.8347H83.4137C83.2484 24.8347 83.1657 24.5729 83.1657 24.0493C83.0279 23.3329 82.959 21.7484 82.959 19.296C82.9039 18.6071 82.8764 17.6702 82.8764 16.4853C82.8764 16.2924 82.7799 16.196 82.587 16.196C82.5044 16.196 82.4217 16.3062 82.3391 16.5267C81.9257 17.5187 81.6777 18.1387 81.5951 18.3867L81.3057 19.2547L80.9751 19.916C80.4791 21.0182 79.9417 21.8724 79.3631 22.4787C79.0048 22.8369 78.6328 23.016 78.2471 23.016H77.7097H76.9657C76.6075 23.016 76.3457 23.0022 76.1804 22.9747C75.8773 22.9747 75.6568 22.9609 75.5191 22.9333C74.5546 21.4453 73.6591 19.8058 72.8324 18.0147C72.7222 17.684 72.6119 17.4084 72.5017 17.188C72.4191 16.9676 72.3502 16.7747 72.2951 16.6093C72.1022 16.3338 72.0057 16.196 72.0057 16.196C71.8128 16.196 71.7164 16.2924 71.7164 16.4853V18.1387C71.7164 19.8196 71.7026 21.032 71.6751 21.776C71.6751 22.9609 71.5924 23.8427 71.4271 24.4213C71.3995 24.5316 71.3582 24.628 71.3031 24.7107C71.2755 24.7933 71.2342 24.8347 71.1791 24.8347H70.9724L70.8071 24.7933C70.5591 24.8209 69.8702 24.8898 68.7404 25C67.6382 25.0827 66.5222 25.124 65.3924 25.124ZM109.191 26.0333C108.971 26.0333 108.668 26.0058 108.282 25.9507C108.089 25.8956 107.786 25.868 107.373 25.868C106.325 25.868 105.03 25.6338 103.487 25.1653H103.198C103.005 25.1653 102.798 25.1102 102.578 25C102.523 24.9449 102.454 24.9036 102.371 24.876C102.289 24.8209 102.192 24.752 102.082 24.6693L101.214 24.1733C100.387 23.7049 99.657 23.0573 99.0232 22.2307C98.3894 21.3764 97.8796 20.4396 97.4939 19.42C96.7499 17.5462 96.3779 15.6311 96.3779 13.6747C96.3779 11.4978 96.8187 9.40356 97.7005 7.392C98.6374 5.27022 99.8912 3.58933 101.462 2.34933C103.198 0.971554 105.127 0.282665 107.249 0.282665C107.91 0.282665 108.42 0.310221 108.778 0.365333C108.778 0.310221 108.819 0.282665 108.902 0.282665H109.026C110.955 0.282665 112.677 0.351554 114.193 0.489332C115.488 0.682222 116.686 1.08178 117.789 1.688C119.993 3.14844 121.577 4.74667 122.542 6.48267C123.561 8.41156 124.071 10.6849 124.071 13.3027C124.071 15.9204 123.451 18.3729 122.211 20.66L121.798 21.3213C121.688 21.4867 121.619 21.5693 121.591 21.5693L121.467 21.776L121.178 21.9413C119.993 23.7049 118.202 24.9036 115.805 25.5373C114.206 25.868 112.002 26.0333 109.191 26.0333ZM109.894 22.9333C110.142 22.9333 110.335 22.7818 110.473 22.4787C110.803 21.9827 111.079 21.0182 111.299 19.5853C111.327 19.3373 111.396 18.7862 111.506 17.932C111.616 17.0778 111.685 16.2787 111.713 15.5347C111.823 13.6609 111.878 12.5036 111.878 12.0627V11.112V10.7813C111.878 9.78933 111.837 8.93511 111.754 8.21867C111.671 7.08889 111.506 6.19333 111.258 5.532C111.01 5.20133 110.817 5.036 110.679 5.036C110.404 5.036 110.142 5.24267 109.894 5.656C109.646 6.06933 109.453 6.82711 109.315 7.92933L108.447 14.5427V15.3693V15.9067C108.53 17.064 108.571 17.8218 108.571 18.18L108.654 19.172L108.778 20.4947C108.778 20.7151 108.805 20.908 108.861 21.0733L109.315 22.6027C109.343 22.7129 109.412 22.7956 109.522 22.8507C109.66 22.9058 109.784 22.9333 109.894 22.9333Z" fill="url(#paint0_linear_228_7373)"/>
<defs>
<linearGradient id="paint0_linear_228_7373" x1="-19.4545" y1="10" x2="125.997" y2="24.2359" gradientUnits="userSpaceOnUse">
<stop stop-color="#2EB9B1"/>
<stop offset="1" stop-color="#65B732"/>
</linearGradient>
</defs>
</svg>
