<svg width="173" height="56" viewBox="0 0 173 56" fill="none" xmlns="http://www.w3.org/2000/svg">
<rect width="173" height="56" rx="8" fill="url(#paint0_linear_1363_3292)"/>
<path d="M42.875 21.2188V35.4375H40.8594V21.2188H42.875ZM30.9688 31.4062C34.6406 29.6719 36.2578 27.4219 36.5781 24.2656H31.7344V22.7031H38.6094C38.6016 27.0156 37.0938 30.6016 32.0156 33L30.9688 31.4062ZM56.3344 30.2812V35.4531H54.35V31.8594H46.5688V30.2812H56.3344ZM44.5375 25.4531C44.5219 23.4375 46.1625 21.9688 48.3188 21.9844C50.1469 21.9688 51.6078 23.0625 51.975 24.6562H54.35V21.2188H56.3344V29.625H54.35V26.2969H51.9672C51.5922 27.9141 50.1313 28.9922 48.3188 29C46.1625 28.9922 44.5219 27.5234 44.5375 25.4531ZM46.4281 25.4531C46.4203 26.6172 47.2406 27.2969 48.3188 27.2969C49.3656 27.2969 50.1703 26.6172 50.1781 25.4531C50.1703 24.3438 49.3656 23.6562 48.3188 23.6562C47.2406 23.6562 46.4203 24.3438 46.4281 25.4531ZM65.2 22.5781C65.1844 26.9688 64.1219 30.6172 58.8094 33.2812L57.7156 31.7812C60.0906 30.6016 61.5047 29.2812 62.3094 27.7031L58.1063 28.0938L57.8563 26.3906L62.9109 26.0859C63.0594 25.4844 63.1609 24.8438 63.2078 24.1719H58.6063V22.5781H65.2ZM66.9969 35.4062V21.2188H68.9969V26.6719H71.0125V28.3125H68.9969V35.4062H66.9969ZM82.8 27.7969V29.3906H72.7375V22.4062H82.6906V24.0156H74.7062V27.7969H82.8ZM71.2062 33.7031V32.0625H84.2219V33.7031H71.2062ZM97.65 32.2188V33.8594H84.6344V32.2188H90.1188V30.0781H86.1344V25.2969H94.1813V23.7344H86.1188V22.1406H96.15V26.8594H88.1344V28.4531H96.4781V30.0781H92.1031V32.2188H97.65ZM108.6 22.3906V29.2188H101.772V22.3906H108.6ZM103.412 35.1875V30.5781H105.397V33.5938H113.147V35.1875H103.412ZM103.741 27.6562H106.631V23.9844H103.741V27.6562ZM110.631 31.5938V21.2188H112.631V25.3125H114.553V26.9531H112.631V31.5938H110.631ZM127.778 26.7656V28.3281H114.778V26.7656H127.778ZM116.278 30.6719V29.1719H126.169V32.8906H118.247V33.7656H126.544V35.3125H116.294V31.4688H124.2V30.6719H116.278ZM116.403 25.9844V21.5H126.122V23.0938H118.387V24.4219H126.231V25.9844H116.403ZM140.159 21.2188V35.4375H138.144V21.2188H140.159ZM128.253 31.4062C131.925 29.6719 133.542 27.4219 133.863 24.2656H129.019V22.7031H135.894C135.886 27.0156 134.378 30.6016 129.3 33L128.253 31.4062Z" fill="white"/>
<defs>
<linearGradient id="paint0_linear_1363_3292" x1="-13.5" y1="-16.5" x2="199.5" y2="63" gradientUnits="userSpaceOnUse">
<stop offset="0.317809" stop-color="#44C57E"/>
<stop offset="1" stop-color="#2F71F1"/>
</linearGradient>
</defs>
</svg>
