<svg width="32" height="32" viewBox="0 0 32 32" fill="none" xmlns="http://www.w3.org/2000/svg">
<mask id="mask0_1346_2213" style="mask-type:alpha" maskUnits="userSpaceOnUse" x="0" y="0" width="32" height="32">
<rect width="32" height="32" fill="#D9D9D9"/>
</mask>
<g mask="url(#mask0_1346_2213)">
<path d="M14.668 15.7327V19.9993C14.668 20.3771 14.7957 20.6938 15.0513 20.9493C15.3069 21.2049 15.6235 21.3327 16.0013 21.3327C16.3791 21.3327 16.6957 21.2049 16.9513 20.9493C17.2069 20.6938 17.3346 20.3771 17.3346 19.9993V15.7327L18.5346 16.9327C18.7791 17.1771 19.0902 17.2993 19.468 17.2993C19.8457 17.2993 20.1569 17.1771 20.4013 16.9327C20.6457 16.6882 20.768 16.3771 20.768 15.9993C20.768 15.6216 20.6457 15.3105 20.4013 15.066L16.9346 11.5993C16.668 11.3327 16.3569 11.1993 16.0013 11.1993C15.6457 11.1993 15.3346 11.3327 15.068 11.5993L11.6013 15.066C11.3569 15.3105 11.2346 15.6216 11.2346 15.9993C11.2346 16.3771 11.3569 16.6882 11.6013 16.9327C11.8457 17.1771 12.1569 17.2993 12.5346 17.2993C12.9124 17.2993 13.2235 17.1771 13.468 16.9327L14.668 15.7327ZM16.0013 29.3327C14.1569 29.3327 12.4235 28.9827 10.8013 28.2827C9.17908 27.5827 7.76797 26.6327 6.56797 25.4327C5.36797 24.2327 4.41797 22.8216 3.71797 21.1993C3.01797 19.5771 2.66797 17.8438 2.66797 15.9993C2.66797 14.1549 3.01797 12.4216 3.71797 10.7993C4.41797 9.17713 5.36797 7.76602 6.56797 6.56602C7.76797 5.36602 9.17908 4.41602 10.8013 3.71602C12.4235 3.01602 14.1569 2.66602 16.0013 2.66602C17.8457 2.66602 19.5791 3.01602 21.2013 3.71602C22.8235 4.41602 24.2346 5.36602 25.4346 6.56602C26.6346 7.76602 27.5846 9.17713 28.2846 10.7993C28.9846 12.4216 29.3346 14.1549 29.3346 15.9993C29.3346 17.8438 28.9846 19.5771 28.2846 21.1993C27.5846 22.8216 26.6346 24.2327 25.4346 25.4327C24.2346 26.6327 22.8235 27.5827 21.2013 28.2827C19.5791 28.9827 17.8457 29.3327 16.0013 29.3327Z" fill="#47B97A"/>
</g>
</svg>
