<svg width="44" height="44" viewBox="0 0 44 44" fill="none" xmlns="http://www.w3.org/2000/svg">
<circle cx="22" cy="22" r="22" fill="url(#paint0_linear_1017_1646)"/>
<mask id="mask0_1017_1646" style="mask-type:alpha" maskUnits="userSpaceOnUse" x="8" y="9" width="28" height="24">
<rect x="8" y="9" width="27.6854" height="24" fill="#D9D9D9"/>
</mask>
<g mask="url(#mask0_1017_1646)">
<path d="M29.2538 31.2994C28.927 31.2994 28.653 31.2035 28.4319 31.0119C28.2108 30.8202 28.1003 30.5827 28.1003 30.2994C28.1003 30.166 28.1291 30.0327 28.1868 29.8994C28.2445 29.766 28.3214 29.6577 28.4175 29.5744C29.2442 28.8577 29.8931 28.0327 30.3641 27.0994C30.8352 26.166 31.0707 25.1494 31.0707 24.0494C31.0707 22.966 30.8352 21.9535 30.3641 21.0119C29.8931 20.0702 29.2442 19.241 28.4175 18.5244C28.3214 18.441 28.2445 18.3327 28.1868 18.1994C28.1291 18.066 28.1003 17.9327 28.1003 17.7994C28.1003 17.516 28.2108 17.2785 28.4319 17.0869C28.653 16.8952 28.927 16.7994 29.2538 16.7994C29.4076 16.7994 29.5566 16.8285 29.7008 16.8869C29.845 16.9452 29.9652 17.016 30.0613 17.0994C31.0995 17.9994 31.9118 19.0452 32.4982 20.2369C33.0846 21.4285 33.3778 22.6994 33.3778 24.0494C33.3778 25.416 33.0846 26.691 32.4982 27.8744C31.9118 29.0577 31.0995 30.0994 30.0613 30.9994C29.9652 31.0827 29.845 31.1535 29.7008 31.2119C29.5566 31.2702 29.4076 31.2994 29.2538 31.2994ZM25.9662 28.4494C25.6393 28.4494 25.3654 28.3535 25.1443 28.1619C24.9232 27.9702 24.8126 27.7327 24.8126 27.4494C24.8126 27.316 24.8463 27.1869 24.9136 27.0619C24.9809 26.9369 25.0626 26.8327 25.1587 26.7494C25.5624 26.3994 25.8797 25.9952 26.1104 25.5369C26.3411 25.0785 26.4565 24.5827 26.4565 24.0494C26.4565 23.516 26.3411 23.0202 26.1104 22.5619C25.8797 22.1035 25.5624 21.6994 25.1587 21.3494C25.0626 21.266 24.9809 21.1619 24.9136 21.0369C24.8463 20.9119 24.8126 20.7827 24.8126 20.6494C24.8126 20.366 24.9232 20.1285 25.1443 19.9369C25.3654 19.7452 25.6393 19.6494 25.9662 19.6494C26.12 19.6494 26.2738 19.6785 26.4276 19.7369C26.5814 19.7952 26.7064 19.866 26.8025 19.9494C27.4178 20.4827 27.8984 21.0994 28.2445 21.7994C28.5905 22.4994 28.7636 23.2494 28.7636 24.0494C28.7636 24.8494 28.5857 25.6035 28.23 26.3119C27.8744 27.0202 27.3889 27.641 26.7737 28.1744C26.6776 28.2577 26.5574 28.3244 26.4132 28.3744C26.269 28.4244 26.12 28.4494 25.9662 28.4494ZM10.3066 30.9994V28.9994C11.191 28.9994 12.0658 28.9494 12.931 28.8494C13.7962 28.7494 14.6421 28.566 15.4688 28.2994C14.5844 27.916 13.8875 27.3619 13.378 26.6369C12.8685 25.9119 12.6138 25.1244 12.6138 24.2744V21.9994H17.228V18.9994H21.1212L17.8624 13.3494C17.7086 13.0994 17.6846 12.8452 17.7903 12.5869C17.8961 12.3285 18.0932 12.1327 18.3815 11.9994C18.6699 11.866 18.9631 11.8452 19.2611 11.9369C19.5591 12.0285 19.785 12.1994 19.9389 12.4494L23.1977 18.0994C23.5822 18.766 23.5533 19.416 23.1111 20.0494C22.6689 20.6827 22.0153 20.9994 21.1501 20.9994H19.5351V21.9994C19.5351 22.5494 19.3092 23.0202 18.8574 23.4119C18.4056 23.8035 17.8624 23.9994 17.228 23.9994H14.9209V24.2744C14.9209 24.8577 15.1276 25.3702 15.5409 25.8119C15.9543 26.2535 16.4782 26.5494 17.1126 26.6994L17.4587 26.7744C18.2277 26.941 18.6603 27.3577 18.7565 28.0244C18.8526 28.691 18.5546 29.191 17.8624 29.5244C16.7089 30.0744 15.4928 30.4577 14.2143 30.6744C12.9358 30.891 11.6332 30.9994 10.3066 30.9994Z" fill="white"/>
</g>
<defs>
<linearGradient id="paint0_linear_1017_1646" x1="22" y1="0" x2="22" y2="44" gradientUnits="userSpaceOnUse">
<stop stop-color="#535FD2"/>
<stop offset="1" stop-color="#52A2BB"/>
</linearGradient>
</defs>
</svg>
