<svg width="36" height="36" viewBox="0 0 36 36" fill="none" xmlns="http://www.w3.org/2000/svg">
<circle cx="18" cy="18" r="18" transform="matrix(-1 0 0 1 36 0)" fill="#8DC76E"/>
<mask id="mask0_1346_1516" style="mask-type:luminance" maskUnits="userSpaceOnUse" x="0" y="0" width="36" height="36">
<circle cx="18" cy="18" r="18" transform="matrix(-1 0 0 1 36 0)" fill="white"/>
</mask>
<g mask="url(#mask0_1346_1516)">
<ellipse cx="8.09015" cy="6.98063" rx="8.09015" ry="6.98063" transform="matrix(-0.939601 -0.342271 -0.342271 0.939601 26.4766 9.54492)" fill="#3A3530"/>
<path d="M16.6918 30.1944L11.3738 15.8379L18.5131 17.2405C18.5131 17.2405 21.2042 22.2203 23.1602 24.2881" fill="#FF9763"/>
<path d="M11.5238 7.16381C11.6406 6.6526 11.8737 6.17518 12.2048 5.76856C13.874 3.73732 17.6402 3.89032 20.6165 6.11045C21.6036 6.83513 22.4228 7.76414 23.0183 8.83414C24.4445 9.07354 25.7928 9.65078 26.9504 10.5176C30.3592 13.0601 31.2896 17.352 29.0283 20.1038C26.7672 22.8556 22.1707 23.025 18.7619 20.4824C16.8452 19.0529 15.7122 17.0702 15.4895 15.1193C15.1098 14.6095 14.7989 14.0519 14.565 13.4608C12.1989 11.6926 11.0525 9.15141 11.5238 7.16381Z" fill="#3A3530"/>
<path d="M17.4852 22.3992C12.006 26.7316 6.65747 22.2773 12.2171 8.36914C11.7696 10.1985 12.8776 12.542 15.1551 14.1767C15.6224 15.35 16.5416 16.5204 17.8487 17.4567C19.0042 18.2846 19.7969 18.3452 21.0156 18.5467L20.4957 19.0608" fill="#FF9763"/>
<path d="M19.0266 20.91C24.0544 18.6642 20.9368 13.2685 17.0293 17.1361Z" fill="#FF9763"/>
<path d="M24.4297 25.9529L22.3154 22.6953L16.1194 29.3704L16.3998 31.9809" fill="#F0F3FC"/>
<path d="M-15.8065 28.4609C-15.8065 28.4609 -10.077 28.999 -9.69507 29.3065C-9.31311 29.614 6.38011 45.5011 6.38011 45.5011L19.0885 33.0329L24.0703 41.7598L7.61686 53.9396C6.7187 54.6046 5.58281 54.8625 4.48555 54.6504C3.38829 54.4384 2.43026 53.7759 1.84455 52.8241L-10.0006 33.6883C-10.0006 33.6883 -10.9943 33.5532 -16.1508 34.764C-16.5858 34.5566 -23.0199 31.2272 -23.0199 31.2272C-23.0199 31.2272 -23.0384 29.8101 -16.7003 32.6442C-16.7003 32.6442 -13.2548 31.4581 -12.6818 30.8815C-12.1089 30.305 -16.2195 30.4668 -15.8065 28.4609Z" fill="#FF9763"/>
<path d="M16.9666 50.984C11.1843 51.2989 9.28921 42.4511 9.28921 42.4511C9.28921 42.4511 21.5502 28.9601 25.1024 29.9979C28.6546 31.0356 26.592 39.1072 26.592 39.1072L16.9666 50.984Z" fill="#BB393C"/>
<path d="M26.4895 61.0191C26.4895 61.0191 27.7897 53.8085 22.0643 49.6979C16.3389 45.5874 16.1203 30.8539 16.1203 30.8539L23.9728 25.0347C23.9728 25.0347 36.0403 32.2448 44.4082 47.6593L26.4895 61.0191Z" fill="#BB393C"/>
<path d="M-16.3552 29.5859C-16.3552 29.5859 -10.3317 30.1481 -9.93013 30.4694C-9.52857 30.7906 6.97017 47.3889 6.97017 47.3889L18.2371 36.4039L25.5684 43.4801L8.27038 56.2051C7.32547 56.9002 6.13342 57.1696 4.98143 56.9483C3.82945 56.7271 2.82199 56.0353 2.20179 55.0396L-10.2514 35.0472C-10.2514 35.0472 -11.2961 34.9062 -16.7172 36.1711C-17.1746 35.9544 -23.939 32.476 -23.939 32.476C-23.939 32.476 -23.9584 30.9955 -17.2949 33.9564C-17.2949 33.9564 -13.6726 32.7172 -13.0702 32.1149C-12.4679 31.5125 -16.7894 31.6816 -16.3552 29.5859Z" fill="#FF9763"/>
<path d="M28.2207 40.7084L18.1012 53.1168C12.022 53.4458 10.0297 44.202 10.0297 44.202C10.0297 44.202 14.5328 39.278 18.987 35.4746" fill="#BB393C"/>
<circle cx="0.451516" cy="0.451516" r="0.451516" transform="matrix(-1 0 0 1 18.1719 32.7549)" fill="#F0F3FC"/>
<path d="M11.3064 15.0334V15.0334C11.0118 15.0561 10.7914 15.3134 10.8142 15.608L10.8837 16.5089C10.9065 16.8035 11.1637 17.0238 11.4583 17.0011V17.0011C11.7529 16.9784 11.9733 16.7211 11.9506 16.4265L11.881 15.5256C11.8583 15.231 11.601 15.0106 11.3064 15.0334V15.0334Z" fill="#190000"/>
<path d="M10.6951 13.2854C12.3008 13.0895 12.711 13.7297 11.7152 13.9176C10.7194 14.1056 9.64599 13.4134 10.6951 13.2854Z" fill="#190000"/>
<path d="M10.2649 16.0171C7.99104 17.5614 8.96901 19.6008 10.293 19.0045Z" fill="#FF9763"/>
<circle cx="1.79678" cy="1.79678" r="1.79678" transform="matrix(-1 0 0 1 16.5527 15.3037)" fill="#E84B23"/>
<path d="M13.373 18.5605C12.5458 19.5554 11.4453 19.2978 11.4453 19.2978" stroke="#993443" stroke-width="1.17932" stroke-linecap="round" stroke-linejoin="round"/>
</g>
</svg>
