<svg width="24" height="24" viewBox="0 0 24 24" fill="none" xmlns="http://www.w3.org/2000/svg">
<mask id="mask0_1242_1422" style="mask-type:alpha" maskUnits="userSpaceOnUse" x="0" y="0" width="24" height="24">
<rect width="24" height="24" fill="#D9D9D9"/>
</mask>
<g mask="url(#mask0_1242_1422)">
<path d="M3.97461 19.7999L3.12461 19.4499C2.60794 19.2332 2.26211 18.8582 2.08711 18.3249C1.91211 17.7916 1.94128 17.2666 2.17461 16.7499L3.97461 12.8499V19.7999ZM7.97461 21.9999C7.42461 21.9999 6.95378 21.8041 6.56211 21.4124C6.17044 21.0207 5.97461 20.5499 5.97461 19.9999V13.9999L8.62461 21.3499C8.67461 21.4666 8.72461 21.5791 8.77461 21.6874C8.82461 21.7957 8.89128 21.8999 8.97461 21.9999H7.97461ZM13.1246 21.8999C12.5913 22.0999 12.0746 22.0749 11.5746 21.8249C11.0746 21.5749 10.7246 21.1832 10.5246 20.6499L6.07461 8.44989C5.87461 7.91655 5.89128 7.39572 6.12461 6.88739C6.35794 6.37905 6.74128 6.03322 7.27461 5.84989L14.8246 3.09989C15.3579 2.89989 15.8746 2.92489 16.3746 3.17489C16.8746 3.42489 17.2246 3.81655 17.4246 4.34989L21.8746 16.5499C22.0746 17.0832 22.0579 17.6041 21.8246 18.1124C21.5913 18.6207 21.2079 18.9666 20.6746 19.1499L13.1246 21.8999ZM10.9746 9.99989C11.2579 9.99989 11.4954 9.90405 11.6871 9.71239C11.8788 9.52072 11.9746 9.28322 11.9746 8.99989C11.9746 8.71655 11.8788 8.47905 11.6871 8.28739C11.4954 8.09572 11.2579 7.99989 10.9746 7.99989C10.6913 7.99989 10.4538 8.09572 10.2621 8.28739C10.0704 8.47905 9.97461 8.71655 9.97461 8.99989C9.97461 9.28322 10.0704 9.52072 10.2621 9.71239C10.4538 9.90405 10.6913 9.99989 10.9746 9.99989Z"/>
</g>
</svg>
