<svg width="25" height="24" viewBox="0 0 25 24" fill="none" xmlns="http://www.w3.org/2000/svg">
<mask id="mask0_1242_1417" style="mask-type:alpha" maskUnits="userSpaceOnUse" x="0" y="0" width="25" height="24">
<rect x="0.5" width="24" height="24" fill="#D9D9D9"/>
</mask>
<g mask="url(#mask0_1242_1417)">
<path d="M5.5 18.85C6.4 17.9667 7.44583 17.2708 8.6375 16.7625C9.82917 16.2542 11.1167 16 12.5 16C13.8833 16 15.1708 16.2542 16.3625 16.7625C17.5542 17.2708 18.6 17.9667 19.5 18.85V6H5.5V18.85ZM12.5 14C11.5333 14 10.7083 13.6583 10.025 12.975C9.34167 12.2917 9 11.4667 9 10.5C9 9.53333 9.34167 8.70833 10.025 8.025C10.7083 7.34167 11.5333 7 12.5 7C13.4667 7 14.2917 7.34167 14.975 8.025C15.6583 8.70833 16 9.53333 16 10.5C16 11.4667 15.6583 12.2917 14.975 12.975C14.2917 13.6583 13.4667 14 12.5 14ZM5.5 22C4.95 22 4.47917 21.8042 4.0875 21.4125C3.69583 21.0208 3.5 20.55 3.5 20V6C3.5 5.45 3.69583 4.97917 4.0875 4.5875C4.47917 4.19583 4.95 4 5.5 4H6.5V2H8.5V4H16.5V2H18.5V4H19.5C20.05 4 20.5208 4.19583 20.9125 4.5875C21.3042 4.97917 21.5 5.45 21.5 6V20C21.5 20.55 21.3042 21.0208 20.9125 21.4125C20.5208 21.8042 20.05 22 19.5 22H5.5Z" />
</g>
</svg>
