<svg width="64" height="64" viewBox="0 0 64 64" fill="none" xmlns="http://www.w3.org/2000/svg">
<rect width="64" height="64" rx="12" fill="url(#paint0_linear_1381_3646)"/>
<mask id="mask0_1381_3646" style="mask-type:alpha" maskUnits="userSpaceOnUse" x="16" y="16" width="32" height="32">
<rect x="16" y="16" width="32" height="32" fill="#D9D9D9"/>
</mask>
<g mask="url(#mask0_1381_3646)">
<path d="M41.333 32.0005C40.9552 32.0005 40.6385 31.8727 40.383 31.6172C40.1274 31.3616 39.9997 31.045 39.9997 30.6672V26.4005L38.7663 27.6005C38.5219 27.845 38.2219 27.9727 37.8663 27.9839C37.5108 27.995 37.1997 27.8672 36.933 27.6005C36.6885 27.3561 36.5663 27.045 36.5663 26.6672C36.5663 26.2894 36.6885 25.9783 36.933 25.7339L40.3997 22.2672C40.6663 22.0005 40.9774 21.8672 41.333 21.8672C41.6886 21.8672 41.9997 22.0005 42.2663 22.2672L45.733 25.7339C45.9997 26.0005 46.133 26.3116 46.133 26.6672C46.133 27.0227 45.9997 27.3339 45.733 27.6005C45.4663 27.8672 45.1497 28.0005 44.783 28.0005C44.4163 28.0005 44.0997 27.8672 43.833 27.6005L42.6663 26.4339V30.6672C42.6663 31.045 42.5386 31.3616 42.283 31.6172C42.0274 31.8727 41.7108 32.0005 41.333 32.0005ZM19.9997 45.3339C19.4441 45.3339 19.0441 45.0894 18.7997 44.6005C18.5552 44.1116 18.5997 43.645 18.933 43.2005L24.2663 36.1005C24.533 35.745 24.8885 35.5672 25.333 35.5672C25.7774 35.5672 26.133 35.745 26.3997 36.1005L31.333 42.6672H41.333L34.6663 33.8005L31.333 38.2005L29.6663 36.0005L33.5997 30.7672C33.8663 30.4116 34.2219 30.2339 34.6663 30.2339C35.1108 30.2339 35.4663 30.4116 35.733 30.7672L45.0663 43.2005C45.3997 43.645 45.4441 44.1116 45.1997 44.6005C44.9552 45.0894 44.5552 45.3339 43.9997 45.3339H19.9997Z" fill="white"/>
</g>
<defs>
<linearGradient id="paint0_linear_1381_3646" x1="0" y1="0" x2="61.5" y2="67" gradientUnits="userSpaceOnUse">
<stop stop-color="#7FD262"/>
<stop offset="1" stop-color="#D2CE62"/>
</linearGradient>
</defs>
</svg>
