<svg width="18" height="18" viewBox="0 0 18 18" fill="none" xmlns="http://www.w3.org/2000/svg">
<circle cx="9" cy="9" r="9" fill="#FF588B"/>
<path d="M11.8736 11.2674C11.9541 11.3479 11.9993 11.4571 11.9993 11.5709C11.9993 11.6847 11.9541 11.7938 11.8736 11.8743C11.7931 11.9548 11.6839 12 11.5701 12C11.4563 12 11.3472 11.9548 11.2667 11.8743L9 9.60706L6.73262 11.8736C6.65213 11.9541 6.54298 11.9993 6.42916 11.9993C6.31534 11.9993 6.20618 11.9541 6.1257 11.8736C6.04521 11.7931 6 11.684 6 11.5702C6 11.4563 6.04521 11.3472 6.1257 11.2667L8.39308 9.00018L6.12641 6.73293C6.04593 6.65245 6.00071 6.5433 6.00071 6.42949C6.00071 6.31568 6.04593 6.20652 6.12641 6.12605C6.20689 6.04557 6.31605 6.00036 6.42987 6.00036C6.54369 6.00036 6.65285 6.04557 6.73333 6.12605L9 8.39329L11.2674 6.12569C11.3479 6.04521 11.457 6 11.5708 6C11.6847 6 11.7938 6.04521 11.8743 6.12569C11.9548 6.20617 12 6.31532 12 6.42913C12 6.54294 11.9548 6.6521 11.8743 6.73257L9.60692 9.00018L11.8736 11.2674Z" fill="white" stroke="white"/>
</svg>
