<svg width="120" height="120" viewBox="0 0 120 120" fill="none" xmlns="http://www.w3.org/2000/svg">
<mask id="mask0_1383_3940" style="mask-type:alpha" maskUnits="userSpaceOnUse" x="0" y="0" width="120" height="120">
<rect width="120" height="120" fill="#D9D9D9"/>
</mask>
<g mask="url(#mask0_1383_3940)">
<path d="M59.9996 37.7599C57.583 37.7599 55.5205 36.9053 53.8121 35.196C52.1038 33.4867 51.2496 31.423 51.2496 29.005C51.2496 26.5869 52.1038 24.5233 53.8121 22.814C55.5205 21.1047 57.583 20.25 59.9996 20.25C62.4163 20.25 64.4788 21.1047 66.1871 22.814C67.8955 24.5233 68.7496 26.5869 68.7496 29.005C68.7496 31.423 67.8955 33.4867 66.1871 35.196C64.4788 36.9053 62.4163 37.7599 59.9996 37.7599ZM49.9996 95.2925V80.284H47.2496C45.4996 80.284 44.1038 79.5753 43.0621 78.1578C42.0205 76.7403 41.833 75.1978 42.4996 73.5302L51.8746 48.3909C52.5413 46.7233 53.6038 45.3684 55.0621 44.3261C56.5205 43.2839 58.1663 42.7628 59.9996 42.7628C61.833 42.7628 63.4788 43.2839 64.9371 44.3261C66.3955 45.3684 67.458 46.7233 68.1246 48.3909L77.4996 73.5302C78.1663 75.1978 77.9788 76.7403 76.9371 78.1578C75.8955 79.5753 74.4996 80.284 72.7496 80.284H69.9996V95.2925C69.9996 96.71 69.5205 97.8982 68.5621 98.857C67.6038 99.8159 66.4163 100.295 64.9996 100.295H54.9996C53.583 100.295 52.3955 99.8159 51.4371 98.857C50.4788 97.8982 49.9996 96.71 49.9996 95.2925Z"/>
</g>
</svg>
