<svg width="120" height="120" viewBox="0 0 120 120" fill="none" xmlns="http://www.w3.org/2000/svg">
<mask id="mask0_1383_3934" style="mask-type:alpha" maskUnits="userSpaceOnUse" x="0" y="0" width="120" height="120">
<rect width="120" height="120" fill="#D9D9D9"/>
</mask>
<g mask="url(#mask0_1383_3934)">
<path d="M60 37.7599C57.5833 37.7599 55.5208 36.9053 53.8125 35.196C52.1042 33.4867 51.25 31.423 51.25 29.005C51.25 26.5869 52.1042 24.5233 53.8125 22.814C55.5208 21.1047 57.5833 20.25 60 20.25C62.4167 20.25 64.4792 21.1047 66.1875 22.814C67.8958 24.5233 68.75 26.5869 68.75 29.005C68.75 31.423 67.8958 33.4867 66.1875 35.196C64.4792 36.9053 62.4167 37.7599 60 37.7599ZM50 95.2925V75.2812C48.5833 75.2812 47.3958 74.8017 46.4375 73.8429C45.4792 72.884 45 71.6958 45 70.2783V52.7684C45 50.0169 45.9792 47.6614 47.9375 45.7019C49.8958 43.7425 52.25 42.7628 55 42.7628H65C67.75 42.7628 70.1042 43.7425 72.0625 45.7019C74.0208 47.6614 75 50.0169 75 52.7684V70.2783C75 71.6958 74.5208 72.884 73.5625 73.8429C72.6042 74.8017 71.4167 75.2812 70 75.2812V95.2925C70 96.71 69.5208 97.8982 68.5625 98.857C67.6042 99.8159 66.4167 100.295 65 100.295H55C53.5833 100.295 52.3958 99.8159 51.4375 98.857C50.4792 97.8982 50 96.71 50 95.2925Z"/>
</g>
</svg>
