<svg width="169" height="49" viewBox="0 0 169 49" fill="none" xmlns="http://www.w3.org/2000/svg">
<ellipse cx="59" cy="3.04024" rx="3" ry="3.04024" fill="#3E3E3E"/>
<ellipse cx="72" cy="3.04024" rx="3" ry="3.04024" fill="#B4B4B4"/>
<ellipse cx="85" cy="3.04024" rx="3" ry="3.04024" fill="#B4B4B4"/>
<ellipse cx="98" cy="3.04024" rx="3" ry="3.04024" fill="#B4B4B4"/>
<ellipse cx="111" cy="3.04024" rx="3" ry="3.04024" fill="#B4B4B4"/>
<path d="M13.6479 36.7637V42.4414H3.5542V36.7637H13.6479ZM5.646 38.4404V40.748H11.5728V38.4404H5.646ZM3.85303 28.2969V33.7754C5.74561 33.7505 7.68799 33.6011 9.71338 33.1943L9.9292 34.9707C7.53857 35.4521 5.28076 35.5684 3.02295 35.5684H1.76123V28.2969H3.85303ZM13.6479 27.5V36.1328H11.5396V31.75H7.7876V30.04H11.5396V27.5H13.6479ZM23.3433 29.0771C23.3433 29.8657 23.2852 30.6377 23.1772 31.3848H26.2319V27.4834H28.3403V42.6074H26.2319V37.1787H22.5796V35.4854H26.2319V33.0615H22.812C21.9653 35.8672 20.0811 38.2578 16.5366 40.001L15.4409 38.3242C19.0601 36.4814 20.8364 34.0825 21.1851 30.7373H16.1714V29.0771H23.3433ZM36.0103 30.9199C36.0103 33.7588 37.1558 36.5146 39.6792 37.6104L38.3843 39.3037C36.7075 38.4819 35.5869 36.9795 34.9644 35.1201C34.3003 37.0957 33.1382 38.7144 31.4116 39.5693L30.0835 37.8428C32.6733 36.6807 33.8521 33.7588 33.8687 30.9199V28.6621H36.0103V30.9199ZM43.0493 27.5V42.6406H40.9575V33.958H37.9858V32.248H40.9575V27.5H43.0493ZM60.9956 27.5166V31.833H62.9214V33.5762H60.9956V37.7764H58.8706V27.5166H60.9956ZM48.7437 35.834C49.8477 35.834 51.1094 35.834 52.4126 35.8008V34.9541C50.769 34.7217 49.7397 33.9248 49.7563 32.7627C49.7397 31.3682 51.2173 30.5049 53.4585 30.5049C55.6831 30.5049 57.144 31.3682 57.1606 32.7627C57.144 33.9248 56.1396 34.7134 54.521 34.9375V35.7178C55.7661 35.668 57.0029 35.5684 58.1733 35.4189L58.3228 36.8799C55.1353 37.4443 51.6323 37.4775 48.9595 37.4775L48.7437 35.834ZM60.9956 38.3906V42.6074H58.8706V40.0176H50.6694V38.3906H60.9956ZM57.7915 28.6123V30.1562H49.1421V28.6123H52.4126V27.3838H54.521V28.6123H57.7915ZM53.4585 31.916C52.3794 31.916 51.7651 32.1816 51.7817 32.7627C51.7651 33.3105 52.3794 33.626 53.4585 33.626C54.521 33.626 55.1187 33.3105 55.1353 32.7627C55.1187 32.1816 54.521 31.916 53.4585 31.916ZM76.2524 27.5166V38.374H74.1274V27.5166H76.2524ZM76.6509 40.6484V42.3418H66.1255V37.2783H68.2671V40.6484H76.6509ZM67.9683 28.4795C70.2925 28.4795 72.1021 30.0732 72.1021 32.2812C72.1021 34.5391 70.2925 36.1162 67.9683 36.1162C65.644 36.1162 63.8345 34.5391 63.8345 32.2812C63.8345 30.0732 65.644 28.4795 67.9683 28.4795ZM67.9683 30.3223C66.7896 30.3057 65.8931 31.0527 65.9097 32.2812C65.8931 33.543 66.7896 34.2734 67.9683 34.2734C69.1138 34.2734 70.0103 33.543 70.0103 32.2812C70.0103 31.0527 69.1138 30.3057 67.9683 30.3223ZM85.5825 29.8076V31.4844H78.2778V29.8076H80.9009V27.915H82.9927V29.8076H85.5825ZM81.9634 32.165C83.8892 32.165 85.2671 33.6592 85.2837 35.751C85.2671 37.8594 83.8892 39.3535 81.9634 39.3535C80.0376 39.3535 78.6265 37.8594 78.6265 35.751C78.6265 33.6592 80.0376 32.165 81.9634 32.165ZM81.9634 33.9248C81.0835 33.9248 80.4858 34.6055 80.4858 35.751C80.4858 36.8965 81.0835 37.5605 81.9634 37.5605C82.8101 37.5605 83.4077 36.8965 83.4243 35.751C83.4077 34.6055 82.8101 33.9248 81.9634 33.9248ZM91.3599 27.5V42.6074H89.3511V35.3359H88.1226V41.96H86.147V27.7988H88.1226V33.6426H89.3511V27.5H91.3599ZM110.734 39.1211V40.8477H96.9048V39.1211H102.732V36.332H98.3657V28.4629H100.491V30.8037H107.082V28.4629H109.19V36.332H104.84V39.1211H110.734ZM100.491 34.6387H107.082V32.4971H100.491V34.6387ZM116.445 31.3018C116.445 33.7422 117.125 36.2656 119.184 37.5938L118.039 39.2373C116.735 38.4487 115.905 37.1538 115.432 35.6016C114.884 37.3115 113.979 38.7393 112.61 39.5693L111.315 38.0088C113.556 36.6143 114.386 33.958 114.386 31.4014V28.7949H116.445V31.3018ZM124.696 27.5V42.6074H122.67V27.5H124.696ZM121.525 27.7158V41.9102H119.549V34.3232H117.59V32.5967H119.549V27.7158H121.525ZM140.119 39.1045V40.8477H126.29V39.1045H129.377V35.4023C128.207 34.7051 127.501 33.6343 127.501 32.2979C127.501 29.8574 129.892 28.2305 133.179 28.2305C136.45 28.2305 138.857 29.8574 138.874 32.2979C138.865 33.6011 138.176 34.6636 137.047 35.3691V39.1045H140.119ZM133.179 29.9072C131.021 29.9072 129.593 30.7705 129.593 32.2979C129.593 33.7754 131.021 34.6885 133.179 34.6885C135.321 34.6885 136.765 33.7754 136.782 32.2979C136.765 30.7705 135.321 29.9072 133.179 29.9072ZM131.469 39.1045H134.906V36.166C134.366 36.2739 133.785 36.332 133.179 36.332C132.573 36.332 132 36.2822 131.469 36.166V39.1045Z" fill="#CDCDCD"/>
<path d="M157.653 35.0746L151.323 28.8731C151.108 28.6621 151.004 28.416 151.011 28.1348C151.018 27.8535 151.129 27.6074 151.344 27.3965C151.56 27.1855 151.811 27.0801 152.098 27.0801C152.385 27.0801 152.636 27.1855 152.852 27.3965L159.483 33.8723C159.656 34.041 159.785 34.2309 159.871 34.4418C159.957 34.6528 160 34.8637 160 35.0746C160 35.2856 159.957 35.4965 159.871 35.7074C159.785 35.9184 159.656 36.1082 159.483 36.277L152.852 42.7739C152.636 42.9848 152.382 43.0868 152.087 43.0797C151.793 43.0727 151.538 42.9637 151.323 42.7528C151.108 42.5418 151 42.2958 151 42.0145C151 41.7332 151.108 41.4872 151.323 41.2762L157.653 35.0746Z" fill="#CDCDCD"/>
<path d="M166.653 35.0746L160.323 28.8731C160.108 28.6621 160.004 28.416 160.011 28.1348C160.018 27.8535 160.129 27.6074 160.344 27.3965C160.56 27.1855 160.811 27.0801 161.098 27.0801C161.385 27.0801 161.636 27.1855 161.852 27.3965L168.483 33.8723C168.656 34.041 168.785 34.2309 168.871 34.4418C168.957 34.6528 169 34.8637 169 35.0746C169 35.2856 168.957 35.4965 168.871 35.7074C168.785 35.9184 168.656 36.1082 168.483 36.277L161.852 42.7739C161.636 42.9848 161.382 43.0868 161.087 43.0797C160.793 43.0727 160.538 42.9637 160.323 42.7528C160.108 42.5418 160 42.2958 160 42.0145C160 41.7332 160.108 41.4872 160.323 41.2762L166.653 35.0746Z" fill="#CDCDCD"/>
</svg>
