<svg width="277" height="292" viewBox="0 0 277 292" fill="none" xmlns="http://www.w3.org/2000/svg">
<g filter="url(#filter0_i_1443_15060)">
<rect y="84.7969" width="277" height="187.359" rx="93.6793" fill="#EEF0F2"/>
</g>
<g filter="url(#filter1_dddd_1443_15060)">
<path fill-rule="evenodd" clip-rule="evenodd" d="M248.79 204.652C248.79 211.641 248.79 215.135 247.43 217.805C246.233 220.153 244.324 222.062 241.976 223.258C239.307 224.618 235.813 224.618 228.824 224.618H44.1379C37.1491 224.618 33.6548 224.618 30.9854 223.258C28.6374 222.062 26.7284 220.153 25.532 217.805C24.1719 215.135 24.1719 211.641 24.1719 204.652V85.5584C24.1719 81.6516 24.1719 79.6983 24.7103 77.9252C25.187 76.3555 25.9686 74.8952 27.0102 73.6278C28.1868 72.1962 29.8121 71.1127 33.0628 68.9456L75.2964 40.7899C77.166 39.5435 78.1008 38.9203 79.1121 38.4788C80.0098 38.0869 80.9505 37.8021 81.9148 37.6302C83.0011 37.4366 84.1246 37.4366 86.3716 37.4366H186.59C188.837 37.4366 189.961 37.4366 191.047 37.6302C192.011 37.8021 192.952 38.0869 193.85 38.4788C194.861 38.9203 195.796 39.5435 197.665 40.7899L239.899 68.9456C243.15 71.1127 244.775 72.1962 245.951 73.6278C246.993 74.8952 247.775 76.3555 248.251 77.9252C248.79 79.6983 248.79 81.6516 248.79 85.5584V204.652Z" fill="#71C596"/>
<path fill-rule="evenodd" clip-rule="evenodd" d="M248.79 204.652C248.79 211.641 248.79 215.135 247.43 217.805C246.233 220.153 244.324 222.062 241.976 223.258C239.307 224.618 235.813 224.618 228.824 224.618H44.1379C37.1491 224.618 33.6548 224.618 30.9854 223.258C28.6374 222.062 26.7284 220.153 25.532 217.805C24.1719 215.135 24.1719 211.641 24.1719 204.652V85.5584C24.1719 81.6516 24.1719 79.6983 24.7103 77.9252C25.187 76.3555 25.9686 74.8952 27.0102 73.6278C28.1868 72.1962 29.8121 71.1127 33.0628 68.9456L75.2964 40.7899C77.166 39.5435 78.1008 38.9203 79.1121 38.4788C80.0098 38.0869 80.9505 37.8021 81.9148 37.6302C83.0011 37.4366 84.1246 37.4366 86.3716 37.4366H186.59C188.837 37.4366 189.961 37.4366 191.047 37.6302C192.011 37.8021 192.952 38.0869 193.85 38.4788C194.861 38.9203 195.796 39.5435 197.665 40.7899L239.899 68.9456C243.15 71.1127 244.775 72.1962 245.951 73.6278C246.993 74.8952 247.775 76.3555 248.251 77.9252C248.79 79.6983 248.79 81.6516 248.79 85.5584V204.652Z" fill="url(#paint0_linear_1443_15060)" fill-opacity="0.2" style="mix-blend-mode:overlay"/>
<path d="M228.824 225.398H44.1379H44.1016C40.6379 225.398 37.991 225.398 35.8784 225.225C33.7493 225.052 32.0943 224.698 30.6313 223.953C28.1365 222.682 26.1082 220.653 24.8371 218.159C24.0917 216.696 23.7385 215.041 23.5646 212.912C23.3919 210.799 23.3919 208.152 23.392 204.688V204.652V85.5584L23.3919 85.4041C23.3918 81.6441 23.3918 79.583 23.9641 77.6985C24.4706 76.0307 25.3009 74.4792 26.4077 73.1326C27.6582 71.6111 29.3732 70.4678 32.5018 68.3822L32.6301 68.2967L74.8638 40.1409L74.9362 40.0926C76.7374 38.8918 77.7254 38.2332 78.8001 37.764C79.7539 37.3476 80.7534 37.045 81.7779 36.8624C82.9324 36.6566 84.1199 36.6566 86.2847 36.6566H86.3716H186.59H186.677C188.842 36.6566 190.029 36.6566 191.184 36.8624C192.208 37.045 193.208 37.3476 194.162 37.764C195.236 38.2332 196.224 38.8919 198.026 40.0927L198.098 40.1409L240.332 68.2967L240.46 68.3822C243.588 70.4678 245.303 71.6111 246.554 73.1326C247.661 74.4792 248.491 76.0307 248.998 77.6985C249.57 79.583 249.57 81.6442 249.57 85.4043V85.5584V204.652V204.689C249.57 208.152 249.57 210.799 249.397 212.912C249.223 215.041 248.87 216.696 248.125 218.159C246.853 220.653 244.825 222.682 242.33 223.953C240.867 224.698 239.212 225.052 237.083 225.225C234.971 225.398 232.324 225.398 228.86 225.398H228.824Z" stroke="url(#paint1_linear_1443_15060)" stroke-width="1.55985"/>
</g>
<path opacity="0.3" fill-rule="evenodd" clip-rule="evenodd" d="M228.824 223.058H44.1379C40.6178 223.058 38.0715 223.057 36.0689 222.893C34.0845 222.731 32.7717 222.418 31.6936 221.868C29.639 220.821 27.9686 219.151 26.9218 217.096C26.3725 216.018 26.0587 214.706 25.8966 212.721C25.7329 210.719 25.7317 208.172 25.7317 204.652V85.5584C25.7317 81.5545 25.7476 79.8776 26.2029 78.3784C26.62 77.005 27.3038 75.7272 28.2153 74.6182C29.2101 73.4079 30.5966 72.4644 33.928 70.2435L76.1617 42.0877C78.0759 40.8116 78.8804 40.282 79.7362 39.9084C80.5217 39.5655 81.3448 39.3163 82.1885 39.1659C83.1078 39.002 84.0709 38.9964 86.3716 38.9964H186.59C188.891 38.9964 189.854 39.002 190.773 39.1659C191.617 39.3163 192.44 39.5655 193.225 39.9084C194.081 40.282 194.886 40.8116 196.8 42.0877L239.034 70.2435C242.365 72.4644 243.752 73.4079 244.746 74.6182C245.658 75.7272 246.342 77.005 246.759 78.3784C247.214 79.8776 247.23 81.5545 247.23 85.5584V204.652C247.23 208.172 247.229 210.719 247.065 212.721C246.903 214.706 246.589 216.018 246.04 217.096C244.993 219.151 243.323 220.821 241.268 221.868C240.19 222.418 238.877 222.731 236.893 222.893C234.89 223.057 232.344 223.058 228.824 223.058ZM247.43 217.805C248.79 215.135 248.79 211.641 248.79 204.652V85.5584C248.79 81.6516 248.79 79.6983 248.251 77.9252C247.775 76.3555 246.993 74.8952 245.951 73.6278C244.775 72.1962 243.15 71.1127 239.899 68.9456L197.665 40.7898C195.796 39.5434 194.861 38.9202 193.85 38.4788C192.952 38.0869 192.011 37.8021 191.047 37.6302C189.961 37.4366 188.837 37.4366 186.59 37.4366H86.3716C84.1246 37.4366 83.0011 37.4366 81.9148 37.6302C80.9505 37.8021 80.0098 38.0869 79.1121 38.4788C78.1008 38.9202 77.1661 39.5434 75.2966 40.7897L75.2964 40.7899L33.0627 68.9457C29.8121 71.1127 28.1868 72.1963 27.0102 73.6278C25.9686 74.8952 25.187 76.3555 24.7103 77.9252C24.1719 79.6983 24.1719 81.6516 24.1719 85.5584V204.652C24.1719 211.641 24.1719 215.135 25.532 217.805C26.7284 220.153 28.6374 222.062 30.9854 223.258C33.6548 224.618 37.1491 224.618 44.1379 224.618H228.824C235.813 224.618 239.307 224.618 241.976 223.258C244.324 222.062 246.233 220.153 247.43 217.805Z" fill="#5B21B6" fill-opacity="0.5"/>
<g style="mix-blend-mode:multiply" filter="url(#filter2_f_1443_15060)">
<path d="M63.5704 54.2585C65.1947 49.8011 69.4854 46.88 74.228 47.0029L207.9 50.4658C213.1 50.6006 217.501 54.3482 218.463 59.4611L231.474 128.661C232.765 135.525 227.438 141.847 220.454 141.738L48.2651 139.069C40.6745 138.951 35.4653 131.384 38.0645 124.252L63.5704 54.2585Z" fill="#3A0095" fill-opacity="0.4"/>
</g>
<path d="M215.285 18.4674L72.3256 5.96003C66.8546 5.48138 62.0314 9.5285 61.5528 14.9995L48.6375 162.621C48.1589 168.092 52.206 172.915 57.677 173.394L200.637 185.901C206.108 186.38 210.931 182.333 211.41 176.862L224.325 29.2403C224.804 23.7692 220.756 18.946 215.285 18.4674Z" fill="white"/>
<path d="M215.285 18.4674L72.3256 5.96003C66.8546 5.48138 62.0314 9.5285 61.5528 14.9995L48.6375 162.621C48.1589 168.092 52.206 172.915 57.677 173.394L200.637 185.901C206.108 186.38 210.931 182.333 211.41 176.862L224.325 29.2403C224.804 23.7692 220.756 18.946 215.285 18.4674Z" fill="#C29C16" fill-opacity="0.02" style="mix-blend-mode:multiply"/>
<path d="M215.285 18.4674L72.3256 5.96003C66.8546 5.48138 62.0314 9.5285 61.5528 14.9995L48.6375 162.621C48.1589 168.092 52.206 172.915 57.677 173.394L200.637 185.901C206.108 186.38 210.931 182.333 211.41 176.862L224.325 29.2403C224.804 23.7692 220.756 18.946 215.285 18.4674Z" stroke="url(#paint2_linear_1443_15060)" stroke-width="1.16988"/>
<path opacity="0.4" d="M56.1169 92.8129L62.9144 15.1173C63.3273 10.3972 67.4885 6.90557 72.2086 7.31852L215.168 19.8259C219.889 20.2388 223.38 24.4 222.967 29.1201L215.49 114.585" stroke="url(#paint3_linear_1443_15060)" stroke-width="1.16988"/>
<path d="M84.6801 36.1177L83.8426 36.239C83.746 36.2306 83.7545 36.134 83.5614 36.1171C83.6664 36.0291 83.4818 35.9156 83.4818 35.9156C83.1837 35.9868 83.3064 35.5112 83.0083 35.5824C82.5509 35.2505 83.1597 34.9633 83.1851 34.6737C83.5169 34.2163 83.8281 33.2545 84.5123 33.2171C84.9154 33.0578 85.3345 32.8999 85.7207 32.9337C85.9137 32.9506 86.313 33.3908 86.3842 33.6889L86.2876 33.6805C86.3757 33.7855 86.64 34.1004 86.5266 34.2851C86.7112 34.3985 86.4095 34.6964 86.5942 34.8098C86.4807 34.9944 86.1115 34.7676 86.4723 35.091L86.5688 35.0994C86.4638 35.1875 86.1742 35.1622 86.2539 35.3637L86.447 35.3806C86.2285 35.6533 85.8593 35.4265 85.817 35.9092C85.7205 35.9007 85.3896 35.7907 85.1797 35.9669C85.0831 35.9584 84.8816 36.0381 84.6801 36.1177ZM84.8766 36.2809L85.3494 36.4357C85.4228 36.5232 85.448 36.6065 85.5228 36.6779C85.4164 36.7821 85.5409 36.8416 85.3456 37.0353L85.4337 37.1403C85.4337 37.1403 85.3372 37.1318 85.3287 37.2284L85.4168 37.3333C85.3203 37.3249 85.2139 37.4291 85.239 37.5123C85.2292 37.625 85.5286 37.5377 85.4152 37.7223C85.3026 37.7125 85.3088 37.8265 85.3088 37.8265C85.2123 37.8181 85.3165 37.9245 85.3165 37.9245C85.2199 37.916 85.124 38.086 85.196 38.1895L85.2036 38.2875L85.1825 38.5288C85.333 38.4771 85.4687 38.408 85.5345 38.3975C86.7378 38.3569 87.7491 37.7319 88.6896 38.6573C88.6196 38.716 88.5228 39.0805 88.4333 38.9916C88.1479 38.918 87.4629 39.1499 87.3999 39.1282C87.0844 39.2141 86.9291 39.1356 86.5862 39.3488C86.4176 39.2368 86.298 39.3074 86.1958 39.3633C85.6928 39.3679 85.3414 39.6777 84.8322 39.5683C84.1926 39.8366 83.4923 39.8726 82.8527 40.1409C82.6003 39.8756 82.3412 40.2421 82.0888 39.9768L81.9217 39.8487C81.9301 39.7521 82.1214 39.2338 82.4971 39.2018C83.0317 39.0216 83.3907 38.8098 83.977 38.7801L84.2225 38.7529L84.2253 38.7207C84.2262 38.5262 84.623 38.2529 84.2278 38.1373C84.239 38.0085 84.4307 38.0415 84.3426 37.9365C84.0439 37.8293 84.3518 37.6455 84.3442 37.5476C84.3526 37.451 84.2561 37.4426 84.2561 37.4426C84.4562 37.379 84.2394 37.2628 84.2465 37.1823C84.3522 36.8997 84.4938 36.3933 84.8766 36.2809ZM85.667 40.4033L85.7684 40.5419C86.0369 40.8086 86.809 41.2491 86.4848 41.8044C86.6407 42.0612 86.3034 42.21 86.4523 42.5473C86.0038 42.6702 85.9181 43.2788 85.478 43.3052L85.4696 43.4017C85.0357 43.5421 84.1019 43.2821 83.5912 43.1888L83.4885 43.0663L83.5144 42.9551L83.4418 42.6731C83.5383 42.6815 83.5383 42.6815 83.5643 42.5703C83.2515 42.624 83.3895 42.3442 83.1978 42.3112C83.2582 41.9923 83.7674 42.1017 83.7326 41.7581C83.8362 41.6861 84.0355 41.8171 84.1391 41.7451L83.9559 41.6155L83.9657 41.5029L83.8979 41.3511C84.0092 41.377 83.9211 41.272 84.0323 41.298L84.1029 41.4176C84.198 41.4422 84.224 41.3309 84.3436 41.2603C84.4746 41.061 84.1618 41.1147 84.0751 40.9937C84.1341 40.6908 84.6852 41.0632 84.4643 40.6224C84.6819 40.5441 85.4132 40.1541 85.667 40.4033ZM85.1693 29.0429L86.1172 29.1421C86.0919 29.4317 85.7854 29.5994 85.865 29.8009C85.8566 29.8975 85.6551 29.9771 85.8481 29.994C85.6382 30.1702 85.5605 30.131 85.5352 30.4206C85.5183 30.6137 85.3355 31.0355 85.3101 31.3251C85.2136 31.3166 85.2052 31.4132 85.1967 31.5097L85.2848 31.6147C86.0825 31.3927 86.6157 31.2285 87.3964 31.1996C87.5915 31.3788 87.9867 31.4944 88.1 31.6827C87.89 31.8588 87.4268 31.9642 87.2168 32.1404C87.1203 32.132 86.9188 32.2116 86.9357 32.0186C86.5073 32.4675 85.8834 32.1859 85.4634 32.5383C85.2534 32.7145 84.8757 32.5841 84.6657 32.7603C84.1577 33.0077 83.6106 32.9599 83.1026 33.2073C82.7164 33.1735 82.0413 33.2927 81.742 33.0071C81.8554 32.8225 82.1068 32.3581 82.2034 32.3666C82.9841 32.3376 83.3691 32.0146 84.0533 31.9772C84.5614 31.7298 84.2005 31.4064 84.4189 31.1336C84.3309 31.0286 84.5493 30.7559 84.4696 30.5544C84.6627 30.5713 84.4851 30.3774 84.5901 30.2893C84.8001 30.1131 84.6106 29.8695 84.9171 29.7018C84.934 29.5087 84.9594 29.2191 85.1693 29.0429ZM85.6983 34.1153C85.4341 33.8004 85.1989 33.8933 84.9093 33.8679C84.961 34.0184 84.7533 33.984 84.7064 33.9637L84.6994 34.0441C84.6825 34.2372 84.5461 34.128 84.3446 34.2076C84.4242 34.4092 84.1521 34.3692 84.1436 34.4657C84.1352 34.5622 84.0435 34.6839 84.0266 34.877C83.9391 34.9504 84.0167 34.9896 83.916 35.0295C83.916 35.0295 84.0125 35.0379 84.0041 35.1344C84.3733 35.3613 84.6163 34.9934 85.0109 34.9307C85.2124 34.851 85.2559 34.7251 85.4574 34.6455C85.5708 34.4608 85.6815 34.3084 85.6983 34.1153ZM85.2061 41.5952L85.3257 41.5246C85.2145 41.4987 85.0544 41.2901 84.9418 41.2803C84.8467 41.2557 84.799 41.4299 84.7905 41.5264C84.8857 41.551 84.8611 41.6461 84.9563 41.6706L84.7316 41.8293L84.8268 41.8539C84.6727 42.1322 84.7131 42.4114 84.4478 42.6638C84.543 42.6883 84.8117 42.5821 84.9082 42.5906L84.8992 42.5087C85.1574 42.3368 85.0868 42.2171 85.2946 42.2515C85.2093 42.1143 85.2177 42.0178 85.45 41.957C85.3549 41.9325 85.1717 41.803 85.2914 41.7324C85.2914 41.7324 85.1815 41.6903 85.2061 41.5952ZM96.9464 35.294C96.7401 35.2435 96.0281 34.8569 96.1982 34.58C96.0136 34.4665 96.3201 34.2988 96.1355 34.1854C96.1355 34.1854 96.232 34.1938 96.337 34.1057C96.1439 34.0888 96.2574 33.9042 96.1693 33.7992C96.2743 33.7111 96.294 33.4858 96.3905 33.4943C96.2143 33.2843 96.5251 33.0683 96.3489 32.8583C96.4623 32.6737 96.4876 32.3841 96.6011 32.1994C96.618 32.0063 96.4418 31.7964 96.6433 31.7167L96.7483 31.6286C96.4671 31.5067 96.7821 31.2425 96.7905 31.1459C96.8955 31.0578 96.7278 30.7513 96.8412 30.5667C96.8496 30.4701 97.0343 30.5836 96.9462 30.4786C96.8581 30.3736 97.1821 30.1912 97.2724 30.0856C97.4733 29.8275 97.7676 30.3559 97.8641 30.3643L97.7676 30.3559L97.9438 30.5659L97.7422 30.6455C98.0319 30.6708 97.8219 30.847 98.015 30.8639C98.0946 31.0655 97.9015 31.0486 97.9015 31.0486C98.0862 31.162 97.7797 31.3297 97.8678 31.4347C97.7543 31.6194 97.834 31.8209 97.7121 32.1021C97.2125 32.2529 97.9595 32.6101 97.4599 32.761C97.4514 32.8575 97.548 32.8659 97.5395 32.9625C97.3296 33.1387 97.405 33.3885 97.2916 33.5731C97.3543 33.9677 97.2381 34.1845 97.2043 34.5707C97.1874 34.7638 96.9633 35.1009 96.9464 35.294ZM96.546 35.794C96.6019 35.8961 96.6956 35.9368 96.7606 36.1208C96.6556 36.2089 96.6088 36.1886 96.6003 36.2851C96.873 36.5035 96.6224 36.7734 96.6055 36.9665C96.509 36.9581 96.3244 36.8446 96.3075 37.0377L96.404 37.0462C96.3956 37.1427 96.194 37.2224 96.2821 37.3273L96.3702 37.4323C96.1772 37.4154 95.9658 37.6077 95.8608 37.6958C95.8608 37.6958 95.8608 37.6958 95.9573 37.7043L95.9489 37.8008L95.7642 37.6874L95.6508 37.872C95.6424 37.9685 95.5458 37.9601 95.5374 38.0566L95.6339 38.0651C95.6001 38.4513 95.1673 38.0243 95.1335 38.4104L95.0398 38.3698C95.0229 38.5629 95.0313 38.4663 94.9433 38.3614C94.8383 38.4495 94.8439 38.3851 94.8355 38.4816C95.0285 38.4985 94.9151 38.6832 94.9067 38.7797C94.9067 38.7797 94.8409 38.7902 94.8324 38.8867C94.929 38.8951 94.5945 39.0118 94.4895 39.0999C94.4726 39.293 94.691 39.0202 94.6742 39.2133C94.6742 39.2133 94.5776 39.2049 94.5692 39.3014C94.5692 39.3014 94.5607 39.398 94.6573 39.4064C94.9553 39.3352 95.4521 39.2165 95.7586 39.0488C95.9433 39.1622 96.0923 39.1266 96.2854 39.1435C96.365 39.3451 96.5804 39.4774 96.5635 39.6705L96.6249 40.0812L96.5199 40.1693C96.608 40.2743 96.6961 40.3792 96.5911 40.4673C96.5996 40.3708 96.4946 40.4589 96.398 40.4504C96.5573 40.8535 96.1116 40.9442 95.9017 41.1204L95.6832 41.3931C95.3984 41.4979 95.5614 41.6743 95.3598 41.754C95.2548 41.842 95.182 41.933 95.2701 42.0379C95.2786 41.9414 95.2923 42.5263 94.9314 42.2029C94.8264 42.291 94.6108 42.5315 94.5059 42.6196L94.6905 42.733C94.4974 42.7162 94.4805 42.9092 94.2874 42.8923C94.384 42.9008 94.4721 43.0058 94.3671 43.0939L94.0521 43.3582C94.4129 43.6816 94.6483 43.2158 95.026 43.3461C96.2182 43.0613 96.142 43.006 97.3259 42.8177C97.4811 42.8961 97.6119 43.0697 97.7321 43.1775C97.3375 43.2403 96.7887 43.9543 96.2094 43.9036L95.9105 44.1693C95.7175 44.1524 95.5159 44.232 95.4109 44.3201C95.2179 44.3032 94.991 44.6725 94.6217 44.4456C94.5517 44.5044 94.4286 44.4287 94.4117 44.6218C94.2356 44.4119 94.0256 44.588 93.8409 44.4746C93.8325 44.5712 93.631 44.6508 93.5429 44.5458C93.4632 44.3443 93.0686 44.407 92.8755 44.3901L92.5859 44.3648C92.5944 44.2683 92.5063 44.1633 92.6197 43.9786C92.452 43.6721 92.8775 43.2554 93.0875 43.0792C93.4278 42.5253 93.8799 42.1757 94.3083 41.7268C94.3337 41.4372 94.608 41.2666 94.7214 41.082C94.818 41.0904 94.8264 40.9939 94.923 41.0023C94.9568 40.6162 95.3785 40.799 95.1227 40.3875C95.0177 40.4756 94.9127 40.5637 94.9127 40.5637C94.8246 40.4587 94.6315 40.4418 94.43 40.5215L94.22 40.6977C94.1275 41.0138 93.9654 40.6429 93.712 40.945L93.5917 40.8372C93.3564 41.3031 92.7836 40.9935 92.4316 41.1249C92.2749 41.0625 92.0455 41.0911 92.0623 40.898L92.1673 40.8099L92.0792 40.7049L92.1842 40.6168C92.1842 40.6168 92.1046 40.4153 92.2096 40.3272L92.6905 39.8342L92.6024 39.7292C92.8123 39.5531 93.0139 39.4734 93.1357 39.1922C93.8622 38.6721 94.1333 37.9824 94.7632 37.4539C94.7717 37.3573 95.0669 37.3183 95.0838 37.1252C94.9957 37.0202 94.8055 36.9712 94.6039 37.0508C94.3855 37.3235 93.9519 37.0911 93.7335 37.3638L93.6369 37.3553L93.6454 37.2588C93.0311 37.2375 93.0883 37.6965 92.614 37.5577C92.509 37.6458 92.2194 37.6204 92.2025 37.8135C92.106 37.8051 92.1144 37.7085 92.0179 37.7001L91.9129 37.7882L92.0975 37.9016C91.7029 37.9644 91.501 37.4927 91.2029 37.5639C91.3248 37.2828 91.5042 36.7148 91.8988 36.652C92.3018 36.4927 92.7218 36.1403 93.196 36.2791L93.108 36.1741C93.2129 36.086 93.301 36.191 93.2926 36.2876C93.3891 36.296 93.5291 36.1785 93.5376 36.082L93.7069 35.9995C94.6478 36.1791 95.1317 35.2811 96.0802 35.5586C96.1767 35.5671 96.3803 35.6498 96.546 35.794ZM94.2473 30.1938L94.31 30.5884C94.31 30.5884 94.31 30.5884 94.205 30.6765C94.1966 30.7731 94.384 30.8543 94.2791 30.9424C94.0775 31.0221 94.3587 31.1439 94.3503 31.2405C94.3193 31.5945 94.2193 31.4398 94.1926 31.7455L94.0896 31.9959C94.0896 31.9959 94.2742 32.1093 94.1608 32.294L93.9593 32.3736C94.0474 32.4786 94.0474 32.4786 94.0389 32.5752L93.8205 32.8479C93.8121 32.9444 93.8917 33.146 93.9798 33.2509C93.9714 33.3475 93.8748 33.339 93.8664 33.4356C93.8664 33.4356 93.8664 33.4356 93.9629 33.444C93.9545 33.5406 93.8579 33.5321 93.8579 33.5321L93.946 33.6371C93.7529 33.6202 93.6479 33.7083 93.5345 33.8929C93.6311 33.9014 93.6827 34.0518 93.7793 34.0603L93.6825 34.4247L93.5945 34.3197C93.4593 34.5673 93.4362 34.6464 93.3227 34.831C93.4108 34.936 93.4277 34.7429 93.5243 34.7514C93.5158 34.8479 93.4108 34.936 93.4108 34.936L93.3939 35.1291C92.9028 35.1834 92.5868 34.718 92.3853 34.7976C92.4022 34.6045 92.2819 34.4967 92.3869 34.4086C92.2107 34.1987 92.1254 34.0615 92.4319 33.8938L92.2549 33.8783C92.3684 33.6936 92.3853 33.5006 92.3056 33.299C92.4022 33.3075 92.4826 33.3145 92.5876 33.2264C92.4283 32.8234 92.6355 32.6794 92.5643 32.3813C92.6608 32.3897 92.6608 32.3897 92.6692 32.2932L92.7742 32.2051C92.8792 32.117 92.7911 32.012 92.7911 32.012L92.6946 32.0036C92.7996 31.9155 93.018 31.6427 92.8418 31.4328C92.7453 31.4243 92.9468 31.3447 92.8587 31.2397C93.0433 31.3531 93.1399 31.3616 93.3414 31.2819C93.1483 31.265 93.2618 31.0804 93.0687 31.0635C92.4725 31.2059 91.8366 31.2475 91.2404 31.3899C91.0305 31.5661 90.7408 31.5408 90.5393 31.6204C90.5478 31.5239 90.3462 31.6036 90.2581 31.4986C90.1616 31.4901 90.38 31.2174 90.17 31.3936L89.9345 30.9352C90.0311 30.9437 90.0395 30.8471 90.0395 30.8471L89.8549 30.7337C90.1614 30.5659 90.5526 30.357 90.9303 30.4873C91.2452 30.223 91.6314 30.2568 92.026 30.194C92.026 30.194 92.026 30.194 91.921 30.2821C92.0091 30.3871 92.2107 30.3075 92.2022 30.404L92.3072 30.3159L92.131 30.1059C92.2276 30.1144 92.3597 30.2719 92.5612 30.1922L92.5172 30.1397C92.9118 30.077 93.7983 29.7654 94.2473 30.1938ZM104.419 31.1161L104.31 31.2525L104.4 31.6982C102.376 32.0399 100.948 32.2393 99.0132 32.1186C99.0182 31.8759 99.1584 31.3855 99.2808 31.2827C101.102 31.4096 102.307 31.3529 103.958 31.011C104.061 31.1334 104.421 30.9056 104.419 31.1161ZM106.102 38.5594L106.074 38.8812C105.479 39.0075 105.26 39.1019 104.537 39.2169C104.072 39.3384 103.354 39.2107 102.994 39.4386C102.286 39.555 101.389 39.8008 100.569 39.9074C100.331 40.0325 99.8505 40.1526 99.5002 39.895C99.3252 40.0418 99.1056 39.9577 99.0293 39.9024C98.7916 39.6546 99.1717 39.2015 99.2908 38.9525C99.9002 38.8437 100.633 38.9889 101.232 38.6359C101.339 38.5156 101.102 38.2678 101.467 38.1701L101.354 38.1602C101.466 37.8133 101.465 37.6349 101.697 37.3957C101.707 36.9102 101.861 36.6319 101.988 36.2863C102.098 36.15 102.108 36.0373 101.971 35.9281C101.258 35.9305 100.715 36.0128 100.107 36.1055C100.014 35.8704 99.6526 36.1144 99.519 35.973C99.3022 35.8567 98.8923 35.7236 98.9022 35.611L99.0086 35.5068C98.6582 35.2492 99.2139 34.8276 99.0987 34.477C99.2276 34.1154 99.3489 33.6558 99.5757 33.2865C100.073 32.795 100.864 31.9076 101.395 32.5054C101.277 32.7383 101.04 32.4905 101.155 32.841C101.042 32.8312 101.047 32.9613 100.933 32.9675C100.573 33.1954 100.806 33.4915 100.342 33.613L100.558 33.7292C100.33 33.7417 100.439 33.9782 100.315 34.0971C100.667 34.3386 99.9929 34.2634 100.333 34.6337C100.107 34.6301 100.213 34.8988 100.337 35.1528C100.931 35.3994 101.19 35.0329 101.886 35.0452C102.253 34.9313 102.864 34.8064 103.227 34.9193L103.466 35.1509C102.857 35.2598 103.599 36.0381 103.022 36.1497L103.131 36.3863L103.007 36.5051C103.365 36.8607 102.642 36.9758 102.886 37.3376C102.654 37.5767 102.903 37.8742 102.537 37.9881C102.781 37.977 102.538 38.3448 102.895 38.3436C104.088 38.2372 104.703 37.8696 105.805 37.8848C106.047 37.8899 106.114 38.6091 106.102 38.5594ZM102.423 40.7668L102.293 40.7716C102.662 40.9985 103.097 41.5878 103.319 41.8342C103.341 41.9496 103.558 42.0659 103.569 42.31L103.215 42.652L103.438 42.8823L103.443 43.0124C103.081 43.2564 103.445 43.726 102.949 43.8447L103.083 43.97L102.945 44.0713C102.757 44.1846 102.351 44.7489 102.005 44.6214C101.947 44.7298 101.126 44.658 101.098 44.6069C100.899 44.476 100.464 44.2596 100.344 44.1518L100.511 43.907C100.381 43.9119 100.159 43.6655 100.277 43.4326L100.401 43.3137L100.164 43.2443C100.503 41.9607 101.096 40.9263 102.076 40.6554C102.19 40.6492 102.433 40.6542 102.423 40.7668ZM102.239 41.9504C102.356 41.7175 101.908 41.8404 101.919 41.7117C101.687 41.9509 101.472 42.1914 101.587 42.542C100.992 42.6683 101.447 43.0323 101.297 43.2624L101.235 43.4191L101.314 43.6206C101.541 43.6242 101.765 43.66 101.997 43.4209C102.011 43.0655 102.354 42.6739 102.246 42.4213C102.116 42.4261 102.24 42.3072 102.24 42.3072C102.364 42.1884 102.358 42.0743 102.239 41.9504ZM113.623 36.3638C113.351 36.3238 113.123 36.8876 112.759 36.7908C111.841 37.4564 110.97 37.5909 109.967 38.1193C109.85 37.9793 109.817 38.3494 109.689 38.3381C109.056 38.526 108.463 38.8146 107.932 39.141C107.665 39.2312 107.486 39.2318 107.498 39.103C107.513 38.926 107.483 38.7127 107.597 38.528C107.495 38.3894 107.671 37.6752 107.58 37.424L107.508 37.3205L107.591 37.2953C107.736 36.9351 107.263 36.7802 107.666 36.4425L107.537 36.4313L107.413 36.5501C107.307 36.2814 107.811 36.0823 107.467 35.9387C107.349 35.7987 107.73 35.7024 107.499 35.5686L107.623 35.4498C107.381 35.4287 107.631 35.3532 107.53 35.2147C107.541 35.0859 107.654 35.0958 107.654 35.0958C107.664 34.9832 107.457 34.5598 107.607 34.3297C107.742 34.0821 108.593 33.816 108.845 33.7084C109.059 33.8568 108.813 34.0785 108.93 34.2185L108.83 34.2583L108.792 34.3198L108.78 34.4486C108.888 34.7012 108.597 35.2432 108.903 35.6428L108.795 35.7631C108.849 36.2543 108.956 36.523 108.785 36.9944C108.773 37.1231 109.02 37.2744 108.762 37.2519L108.752 37.3645C109.251 37.4081 109.296 37.2661 109.8 37.067C111.199 36.4598 112.423 35.9994 113.741 35.0123C113.751 34.8996 113.762 34.7709 113.901 34.6695C113.772 34.6583 113.912 34.5408 113.795 34.4008C114.18 34.0778 114.502 33.5386 115.21 33.9734L115.41 34.2828C115.876 34.6965 115.019 34.8646 115.218 35.3684L115.089 35.3572C115.078 35.4859 115.187 35.7224 114.926 35.9266L115.013 36.226C115.013 36.226 114.989 36.4996 114.876 36.4897C114.978 36.6283 115.107 36.6396 114.967 36.757C114.844 36.8598 115.064 37.1223 114.879 37.2033C114.85 37.3467 114.836 37.5076 114.99 37.6021C114.609 37.6985 114.711 38.1939 114.69 38.4352L114.819 38.4465C114.55 38.5527 114.535 38.7297 114.402 38.9451L114.477 39.0165C114.47 39.0969 114.366 39.1689 114.452 39.3061C114.45 39.3222 114.45 39.3222 114.466 39.3236C114.354 39.3137 114.336 39.3284 114.32 39.327C114.288 39.3242 114.254 39.3375 114.236 39.3683L114.21 39.6579L114.114 39.6494C114.111 39.6816 114.108 39.7138 114.123 39.7313C114.137 39.7488 114.168 39.7677 114.2 39.7705C114.196 39.8188 114.177 39.8495 114.144 39.8628L114.047 39.8544C114.023 39.9495 114.072 39.9376 114.055 39.9523C114.508 39.9596 114.863 39.9744 115.273 40.3021C115.261 40.4308 114.836 40.4746 114.945 40.7112C114.57 40.9215 114.764 41.2952 114.519 41.5008C114.359 41.8435 114.229 41.6699 114.079 41.9C114.069 42.0127 114.198 42.0239 114.059 42.1253C114.177 42.2653 114.048 42.254 113.935 42.2442C113.71 42.2245 114.028 42.4793 113.803 42.4596L113.539 42.6959C113.771 42.8296 113.637 43.0611 113.508 43.0499C113.395 43.04 113.273 43.1428 113.273 43.1428C113.263 43.2554 113.376 43.2653 113.364 43.394C113.364 43.394 113.252 43.3842 113.263 43.2554L113.123 43.3729C113.242 43.4968 113.355 43.5066 113.467 43.5165C113.718 43.425 114.084 43.3272 114.438 43.3582C114.935 43.045 115.596 43.4596 116.042 43.7417C116.012 44.0796 115.303 44.2122 115.057 44.4338C114.611 44.1516 114.328 44.6132 113.873 44.4437C113.713 44.7864 112.87 44.5992 112.506 44.6808C112.184 44.6527 111.944 44.4371 111.65 44.46C111.733 44.4349 111.805 44.36 111.813 44.2635C111.71 44.141 111.469 44.1199 111.234 44.2128C111.265 43.8588 111.92 43.4135 111.951 43.0596C112.476 42.6191 112.538 42.0895 113.057 41.535C113.077 41.3097 113.555 41.2218 113.349 40.9769C112.519 41.0177 111.671 40.8787 111.447 41.4103C111.393 41.4705 111.255 41.9286 111.38 42.1666C111.258 42.2693 111.165 42.0342 111.026 42.1356C111.145 42.2595 111.254 42.3176 111.345 42.5688C111.11 42.6617 110.989 43.1213 110.979 43.2339L111.07 43.3067L111.096 43.3739C111.087 43.4866 111.209 43.3838 111.209 43.3838C111.189 43.609 110.802 43.5913 110.679 43.6941C110.679 43.6941 110.567 43.6843 110.448 43.5604L110.576 43.5716C110.596 43.3464 110.088 43.4154 109.985 43.2929C109.996 43.1642 109.877 43.0403 109.764 43.0304C109.898 42.7989 109.933 42.3967 109.841 42.1615C110.204 42.0799 109.984 41.8174 110.005 41.5761L109.902 41.4536C110.144 41.4747 110.035 41.2382 110.175 41.1207C109.933 41.0996 110.185 41.0081 110.066 40.8842C110.206 40.7667 110.216 40.6541 110.225 40.5415C109.995 40.3916 110.237 40.4127 110.118 40.2889C110.266 40.0749 110.149 39.9349 110.046 39.8124C110.297 39.7209 110.19 39.4683 110.318 39.4795C110.108 39.1044 110.813 38.8256 111.076 38.6054C111.317 38.6265 111.706 39.001 111.947 39.0221C111.937 39.1348 111.686 39.2263 111.686 39.2263L111.805 39.3502L111.548 39.5061C111.651 39.6285 111.79 39.5272 111.892 39.6497C111.881 39.7784 111.538 39.6187 111.63 39.8699L111.517 39.86C112.136 40.206 112.615 40.102 113.29 39.9827C113.354 39.8099 113.321 39.6287 113.371 39.4224C113.374 39.3902 113.377 39.358 113.395 39.3433C113.396 39.3272 113.399 39.295 113.416 39.2804C113.416 39.2804 113.451 39.251 113.502 39.223C113.444 38.9586 113.687 38.5907 113.596 38.3395L113.734 38.2381C113.252 38.1959 113.654 37.8582 113.794 37.7407C113.434 37.5957 113.965 37.2693 113.616 36.9956C113.654 36.934 113.817 36.7375 113.84 36.6585C113.716 36.5989 113.794 36.2653 113.623 36.3638ZM111.567 44.4851L111.65 44.46C111.632 44.4747 111.599 44.488 111.567 44.4851ZM117.648 37.8347C117.775 37.6836 117.883 37.3689 118.181 37.2977C118.102 37.0961 118.295 37.113 118.4 37.0249L118.426 36.7192C118.54 36.5346 118.942 36.5698 119.055 36.3851C119.345 36.4105 119.601 36.822 119.828 36.4527C120.222 36.39 120.791 36.7478 120.854 37.1424C120.845 37.2389 120.845 37.2389 120.74 37.327L120.925 37.4404L120.82 37.5285L120.908 37.6335C120.908 37.6335 120.707 37.7132 120.891 37.8266C120.69 37.9063 120.752 38.3009 120.454 38.3721C120.341 38.5567 120.173 38.2502 120.06 38.4348C120.148 38.5398 120.349 38.4602 120.437 38.5651C120.324 38.7498 119.898 39.1665 119.6 39.2377C119.197 39.397 118.467 39.7709 118.018 39.3425C117.922 39.3341 117.416 38.998 117.433 38.8049C117.337 38.7965 117.337 38.7965 117.345 38.6999C117.354 38.6034 117.442 38.7084 117.459 38.5153L117.362 38.5069C117.379 38.3138 117.727 38.0362 117.648 37.8347ZM120.007 37.5547C119.55 37.2228 119.136 37.6893 118.821 37.9535C118.531 37.9282 118.805 38.325 118.419 38.2912C118.507 38.3962 118.597 38.2906 118.58 38.4837C118.878 38.4125 119.273 38.3498 119.491 38.077C119.701 37.9008 119.797 37.7309 120.007 37.5547ZM122.419 40.749L122.569 40.8918L122.694 41.3081L122.342 41.4394L122.534 41.4724C122.404 41.6556 122.031 41.477 121.919 41.6456C121.824 41.621 121.619 41.5545 121.499 41.6251L121.571 41.7287C121.371 41.7922 121.275 41.9622 121.045 41.8123C120.587 41.675 120.089 41.9881 119.867 41.9362C119.786 41.9292 119.644 42.0788 119.374 42.0066C119.189 42.0877 119.067 41.996 118.878 42.1253L118.789 42.0203C118.782 42.1008 118.663 42.1714 118.542 42.2581C118.264 42.2824 117.97 42.3053 117.771 42.3528C117.627 42.3401 117.012 42.3188 117.373 42.4638C117.172 42.5274 117.04 42.1915 116.856 42.2565L116.928 42.36C116.832 42.3355 116.427 42.1541 116.318 41.9176C116.65 41.2657 117.601 41.3327 118.222 41.0951C119.634 40.8944 120.93 40.5376 122.419 40.749ZM124.635 37.1003C124.455 37.117 124.496 37.3962 124.512 37.7704C124.514 38.484 124.337 38.4686 124.504 38.9696C124.403 39.0094 124.389 39.1703 124.292 39.3563L124.388 39.3648C124.371 39.5579 124.47 39.7286 124.259 39.9209L124.371 39.9308C124.373 40.0931 124.261 40.0832 124.177 40.3028C124.16 40.4959 124.34 40.4792 124.342 40.6415C124.244 40.6492 124.146 40.8352 124.148 40.9975C124.212 41.1976 124.212 41.1976 124.212 41.376C124.116 41.3676 123.951 41.4018 123.835 41.797C123.936 41.7572 123.999 41.9573 124.083 42.1106L123.985 42.4911C123.903 42.3217 123.853 43.0794 123.688 42.7407C123.589 42.9428 123.255 43.2379 123.075 43.2546C123.092 43.0615 122.805 43.1985 122.805 42.8256C122.822 42.6325 122.961 42.7095 122.976 42.3541C122.875 42.394 122.794 42.3869 122.809 42.0315C122.893 42.0064 122.992 41.9827 123.089 41.9911C123.005 41.8378 122.912 41.6027 122.943 41.2487C123.023 41.2558 123.023 41.2558 123.139 41.039C122.959 40.8773 122.974 40.5219 123.071 40.3358C123.088 39.7699 123.217 39.0353 123.235 38.6478L123.167 38.4959C123.259 38.3742 123.233 38.4855 123.23 38.5176C123.23 38.5176 123.251 38.4708 123.307 38.3785C123.324 37.8125 123.267 37.3535 123.368 36.7624L123.464 36.7709L123.382 36.6015L123.479 36.4155L123.371 35.9845C123.388 35.7914 123.785 35.6964 123.866 35.7035C124.128 36.0345 124.568 36.3811 124.635 37.1003ZM128.589 44.3855C128.572 44.5785 128.592 44.9046 128.441 44.9563C128.433 45.0528 128.521 45.1578 128.416 45.2459L128.303 45.4305C128.391 45.5355 128.277 45.7201 128.172 45.8082C127.849 46.1691 127.71 46.6433 127.387 47.0041C127.265 47.2853 126.739 47.5474 126.81 47.8455C126.705 47.9336 126.529 48.0965 126.336 48.0796C126.349 47.9348 125.753 47.7043 125.758 47.6399C125.806 47.0929 126.44 46.7105 126.669 46.1307C127.076 45.9231 127.199 45.4474 127.349 45.0228C127.39 44.9291 126.961 44.8268 127.002 44.733C126.867 44.4132 126.915 44.0607 127.055 43.7487C127.258 43.2801 128.237 43.2197 128.47 43.5158C128.55 43.7173 128.517 44.0874 128.589 44.3855ZM83.446 55.9685L83.6469 55.7104C83.7434 55.7189 83.8001 55.6265 83.9198 55.5559C83.7036 55.6181 83.9269 55.4755 83.7513 55.4439C83.1531 55.424 83.2824 55.6137 82.6038 55.5867C82.4842 55.6573 82.6758 55.6903 82.5793 55.6819L82.4842 55.6573C82.3462 55.9371 82.1254 55.4962 82.0924 55.6879C81.9958 55.6795 81.8677 55.8466 81.7796 55.7416L81.7712 55.8381C81.6761 55.8136 81.6845 55.7171 81.5795 55.8052L81.131 55.9281C81.0345 55.9196 81.0099 56.0147 80.9393 55.8951L80.8428 55.8866L80.7477 55.8621L80.8182 55.9818C80.7853 56.1734 80.4608 55.8046 80.4985 56.1159C80.6817 56.2454 80.8818 56.1819 81.1602 56.3359C80.8734 56.2784 80.5536 56.4126 80.2983 56.1795C80.0737 56.3382 79.6612 55.8643 79.4695 55.8313L79.5123 55.527C80.8074 55.3647 81.3056 55.2299 82.6252 54.9725C83.3367 54.8078 83.8705 54.822 84.6702 54.7623C85.062 54.7317 85.6791 54.7208 86.0869 54.6917C86.054 54.8834 85.8587 55.077 85.5592 55.1643L85.6557 55.1728L85.4311 55.3315C85.1819 55.5853 84.8621 55.7194 84.7961 56.1028C84.5093 56.0453 84.596 56.1664 84.4763 56.237L84.4679 56.3335L84.3643 56.4055L84.2537 56.558L84.1222 56.5789C84.1137 56.6754 84.1857 56.779 84.1857 56.779L83.9611 56.9377C83.9281 57.1294 83.6789 57.3832 83.6704 57.4797L83.5753 57.4552C83.9011 57.808 84.0023 58.3194 84.2477 58.6652L84.0315 58.7273C84.1196 58.8323 84.3197 58.7687 84.2867 58.9604L84.1902 58.952C84.2867 58.9604 84.2783 59.0569 84.3489 59.1766L84.1487 59.2402C84.2453 59.2486 84.1878 59.5354 84.3879 59.4719C84.3549 59.6635 84.2207 59.3438 84.1878 59.5354C84.2584 59.6551 84.3549 59.6635 84.45 59.6881L84.5757 60.1044C84.4806 60.0799 84.4806 60.0799 84.3756 60.168C84.4476 60.2716 84.5673 60.201 84.5673 60.201L84.693 60.6173C84.5733 60.6879 84.5013 60.5843 84.3817 60.6549C84.6439 60.8076 84.9321 60.849 84.8907 61.1372C85.0494 61.3619 85.1683 61.4857 85.3845 61.4236C85.2954 61.886 84.6226 61.4218 84.3734 61.6756C84.2147 61.451 83.7914 61.6571 83.9525 61.2983C83.6327 61.4325 83.514 60.9357 83.2272 60.8782C83.3223 60.9027 83.3469 60.8076 83.3469 60.8076L83.1882 60.5829L83.2932 60.4948L82.9673 60.142C83.0709 60.07 83.0709 60.07 83.0003 59.9504L83.0249 59.8552C83.0249 59.8552 83.1039 59.8784 83.1284 59.7832C83.0333 59.7587 83.0578 59.6636 82.9613 59.6551L82.8746 59.534C82.9613 59.6551 83.0663 59.567 83.1614 59.5916L82.9943 59.4634C83.2189 59.3047 82.9321 59.2472 82.844 59.1422L82.9651 59.0556C82.877 58.9506 82.9317 58.6959 82.7155 58.7581L82.6771 58.6412L82.6596 58.6559C82.5546 58.744 82.5574 58.7118 82.5244 58.9035C82.4279 58.8951 82.3458 59.277 82.1787 59.1489L82.0751 59.2209C82.2507 59.2525 82.1212 59.4357 82.2093 59.5407C82.1141 59.5161 82.0176 59.5077 81.9931 59.6028C81.865 59.77 81.8565 59.8665 81.9187 60.0827C81.727 60.0497 81.7576 60.4415 81.5659 60.4085C81.661 60.4331 81.5329 60.6002 81.628 60.6248L81.4881 60.7422L81.2515 60.8512L80.4402 60.4884C80.4732 60.2967 80.3436 60.48 80.3682 60.3848C80.2815 60.2638 80.7873 60.2269 80.404 60.161C80.3503 59.8482 80.6041 60.0974 80.6371 59.9057C80.6371 59.9057 80.437 59.9693 80.4699 59.7776C80.5735 59.7056 80.7191 59.5238 80.8472 59.3567C80.8887 59.0685 81.2344 58.8231 81.2758 58.5349C81.5321 58.2006 81.7813 57.9468 82.0389 57.5964C82.0964 57.3096 82.4247 57.0789 82.5787 56.8005L82.7788 56.737C82.8034 56.6418 82.9399 56.3782 83.0351 56.4027C83.2927 56.0523 83.1779 56.2531 83.446 55.9685ZM86.4183 61.8383L86.5904 61.7237L86.8024 61.7098L87.6069 61.7802C87.7986 61.8131 88.0384 62.2232 88.0858 62.422C88.0774 62.5185 88.148 62.6382 88.2361 62.7432C88.2115 62.8383 88.0444 62.7102 88.0114 62.9018C88.0114 62.9018 88.1065 62.9264 88.2031 62.9348C88.082 63.0215 88.1786 63.03 88.1786 63.03L87.9784 63.0935C88.1701 63.1265 88.2323 63.3427 88.2077 63.4378C88.2077 63.4378 88.1993 63.5344 88.1747 63.6295L88.1041 63.5098L88.0076 63.5014C88.2713 63.638 88.1172 63.9163 88.1088 64.0129C88.0842 64.108 87.9891 64.0835 87.8841 64.1716C87.9807 64.18 87.9561 64.2751 88.0513 64.2997C87.8525 64.3471 88.0183 64.4913 87.9147 64.5634C87.795 64.6339 87.7409 65.067 87.6198 65.1537L87.6114 65.2502L87.3952 65.3124L87.4833 65.4173C87.2916 65.3844 87.2425 65.5746 87.067 65.543C87.1096 65.6116 86.9473 65.6136 87.0179 65.7333C86.7556 65.5807 86.6162 65.8765 86.3294 65.819L86.4 65.9387C86.1132 65.8812 85.1834 65.9457 85.0163 65.8176C84.761 65.5845 84.4911 65.3339 84.2274 65.1973C84.252 65.1022 84.4437 65.1352 84.2604 65.0057L84.285 64.9105C84.39 64.8224 84.3815 64.919 84.4851 64.847C84.39 64.8224 84.3179 64.7189 84.2313 64.5978L84.3509 64.5272C84.2642 64.4061 84.2642 64.4061 84.2888 64.311C84.4889 64.2474 84.431 63.9829 84.4555 63.8878C85.0659 63.2116 85.4989 61.9686 86.4183 61.8383ZM89.5154 55.3483C89.4796 55.5722 89.3426 55.2846 89.2656 55.4237C89.1346 55.6231 89.4796 55.5722 89.3325 55.7701L89.2199 55.7602C89.2101 55.8729 89.1743 56.0967 89.277 56.2192L89.156 56.3059L89.2672 56.3318C89.204 56.683 89.204 56.683 89.0745 56.8662L88.9619 56.8564C89.1423 57.0181 89.2177 57.2679 89.3205 57.3904L89.0608 57.5784C89.1538 57.8135 89.2531 57.7898 89.0962 58.1003C89.0864 58.213 89.0765 58.3256 88.9639 58.3157C88.8861 58.6494 89.1198 58.5726 89.2127 58.8077C90.4211 58.5243 90.7207 58.0641 91.8971 58.7021C91.8971 58.7021 91.9704 59.1625 91.9444 59.2737C91.7248 59.1896 91.738 59.2232 91.803 59.4072C91.4595 59.442 90.8348 59.3549 90.3499 59.5233C90.0422 59.3342 89.9432 59.9093 89.6152 59.7671C89.159 59.792 89.4927 59.8698 88.9064 59.8996C88.5959 59.7427 88.0393 60.3588 87.6793 59.8409L87.5506 59.8296L87.6892 59.7283L87.6025 59.6072L87.7509 59.3932L87.5257 59.3735C87.5454 59.1482 87.8149 58.8475 87.8346 58.6223L87.7087 58.5788L87.8619 58.495C87.5759 58.243 88.1447 58.2279 87.7083 58.0275C87.7083 58.0275 87.9953 57.7122 87.7799 57.5798C87.6771 57.4574 87.7897 57.4672 87.9283 57.3658C87.5918 57.3202 87.8613 57.0195 87.8971 56.7956C87.9168 56.5704 88.0045 56.1241 88.0242 55.8988C87.7989 55.8791 88.0761 55.6764 88.086 55.5637C88.1986 55.5736 88.3098 55.5995 88.4309 55.5129C88.5435 55.5227 88.4407 55.4002 88.3456 55.3757C88.3197 55.4869 88.0958 55.4511 87.9832 55.4413C88.1674 55.0034 88.8657 54.8051 89.1169 54.7136C89.2022 54.8507 89.4224 55.1132 89.5154 55.3483ZM86.978 63.0384C86.8199 62.9922 86.8809 62.8516 86.5486 62.7577C86.6192 62.8773 86.5402 62.8542 86.5947 62.9725C86.324 62.9163 86.3616 63.2277 86.0748 63.1702L85.9537 63.2569C86.1699 63.1947 86.1369 63.3864 86.2335 63.3948C86.0173 63.457 85.9137 63.529 85.8171 63.5205L85.8807 63.7207C85.8562 63.8158 85.8147 64.104 85.8147 64.104C85.6936 64.1907 85.5265 64.0626 85.502 64.1577L85.6852 64.2872C85.6607 64.3824 85.6522 64.4789 85.5571 64.4544L85.6277 64.574C85.6912 64.7742 85.5241 64.646 85.4996 64.7412L85.5702 64.8608C86.1758 65.3516 86.2602 64.3862 86.685 64.1639C86.5885 64.1555 86.58 64.252 86.4933 64.1309C86.613 64.0603 86.6214 63.9638 86.718 63.9723L86.5593 63.7476C86.679 63.677 86.5167 63.679 86.7168 63.6155L86.7119 63.4853L86.7204 63.3888C86.7449 63.2937 86.7534 63.1971 86.6582 63.1726C86.7779 63.102 86.908 63.0971 86.978 63.0384ZM84.1616 60.0195L84.1862 59.9244C84.1946 59.8279 84.124 59.7082 83.9078 59.7703C84.0379 59.7655 83.9699 59.9866 84.1616 60.0195ZM95.7567 56.4943C95.8363 56.6958 95.9928 57.131 96.0809 57.236L95.9759 57.3241C95.7744 57.4037 95.7659 57.5003 95.5644 57.5799L95.749 57.6934C95.346 57.8527 95.2571 57.9422 95.0302 58.3114L94.8287 58.3911C94.8118 58.5842 94.5306 58.4623 94.5053 58.7519C94.2156 58.7266 94.3331 58.8666 94.035 58.9378C94.0181 59.1308 93.7285 59.1055 93.6235 59.1936L93.7116 59.2986C93.6151 59.2901 93.5668 59.2859 93.5584 59.3825C93.7346 59.5924 94.0411 59.4247 94.2342 59.4416C94.5153 59.5635 94.8924 59.5154 95.0517 59.9184C95.1229 60.2165 95.2822 60.6196 95.1688 60.8042L94.9757 60.7873L95.0638 60.8923L94.9588 60.9804C94.9504 61.0769 94.9377 61.2217 95.0343 61.2302C94.8158 61.5029 94.5906 61.4832 94.6533 61.8778C94.5399 62.0625 94.2678 62.0224 94.339 62.3205C94.2509 62.2155 94.2585 62.3135 94.162 62.305C94.2501 62.41 94.234 62.4086 94.3305 62.417C94.2255 62.5051 93.9275 62.5763 94.1037 62.7863L94.0071 62.7779L93.9987 62.8744C94.6829 62.837 95.2553 62.5952 96.0276 62.6628C96.0192 62.7593 96.2123 62.7762 96.1073 62.8643C96.0107 62.8559 96.0192 62.7593 95.9142 62.8474L96.0988 62.9609C96.0904 63.0574 95.7956 63.6477 95.9886 63.6646C95.699 63.6393 95.2079 63.6936 95.384 63.9036C95.2875 63.8951 95.1825 63.9832 95.0775 64.0713C94.5948 64.0291 93.483 64.3209 93.0256 63.9891L92.7276 64.0603C92.8326 63.9722 92.8348 63.7616 93.0194 63.875C92.8348 63.7616 92.7551 63.5601 92.5536 63.6397L92.7551 63.5601L92.5705 63.4466C92.9023 62.9893 93.1545 62.3304 93.5745 61.978C93.5914 61.7849 93.8014 61.6087 93.8183 61.4156C94.0367 61.1429 93.9136 61.0673 94.1236 60.8911C94.1404 60.698 93.9474 60.6811 93.8593 60.5761C93.5781 60.4543 93.2891 60.6073 93.0163 60.3889C92.9995 60.582 92.7022 60.4587 92.6056 60.4502C92.4295 60.2403 92.316 60.4249 92.2279 60.3199C92.3414 60.1353 92.0433 60.2065 92.0602 60.0134L92.1567 60.0219C92.1652 59.9253 92.0686 59.9169 92.0686 59.9169C92.1821 59.7322 92.5552 59.3595 92.677 59.0784C93.4119 58.4617 94.0145 58.0604 94.7494 57.4438C94.5817 57.1373 94.3234 57.3092 93.9457 57.1789C93.358 57.2248 93.1637 56.8511 92.5845 56.8004C92.6599 55.7531 93.5159 56.3469 94.0435 56.2471C94.6143 56.3943 95.2993 56.1624 95.7567 56.4943ZM95.6402 59.6781C95.7452 59.59 95.8705 59.455 95.9992 59.4663L96.0091 59.3537C96.9602 58.6749 97.9574 58.2108 99.2223 58.208C99.5511 58.1557 99.918 58.9661 100.07 58.5254C100.018 58.1965 100.134 57.9797 100.066 57.6495C100.182 57.4327 100.251 57.0171 100.496 56.8116C100.607 56.8375 101.253 56.8616 101.124 57.2233L101.102 57.4807C101.187 57.6179 101.048 57.9137 101.255 58.1426L101.115 58.2601C101.348 58.3777 100.991 58.5573 101.189 58.7044C101.189 58.7044 101.189 58.7044 101.061 58.6931C101.031 59.031 101.367 59.2711 101.13 59.3802L101.064 59.5851C101.101 59.8964 100.989 59.8866 101.016 60.1322L100.909 60.2364C101.242 60.5087 100.931 60.9192 100.805 61.2486C101.03 61.2683 100.893 61.3536 100.865 61.4809C100.865 61.4809 100.769 61.4725 100.646 61.5753C100.855 61.5936 100.846 61.7062 100.836 61.8188C100.826 61.9315 100.739 61.8104 100.729 61.923L100.817 62.028L100.589 62.235C100.563 62.3462 100.675 62.356 100.675 62.356C100.763 62.461 100.667 62.4526 100.543 62.5714L100.639 62.7744L100.516 62.8772C100.629 62.887 100.618 63.0157 100.714 63.0242C100.714 63.0242 100.608 63.1284 100.599 63.2249C100.599 63.2249 100.495 63.1185 100.487 63.215L100.66 63.4572C100.563 63.4488 100.563 63.4488 100.554 63.5614L100.65 63.5698L100.769 63.6937C100.63 63.7951 100.622 63.8916 100.611 64.0204C100.496 64.2211 100.073 64.2327 99.9607 64.2229C99.979 64.0137 99.3004 63.9868 99.5377 63.6833C99.6638 63.3538 99.4834 63.1921 99.7137 62.9691C99.5228 62.7416 99.6895 62.3184 99.8219 62.103C99.7177 61.9966 99.8458 61.8295 99.7529 61.5944C99.7802 61.4671 99.9112 61.2677 99.921 61.1551C99.8183 61.0326 99.7155 60.9101 99.6091 61.0143C99.4804 61.0031 99.4607 61.2283 99.3579 61.1058C99.3579 61.1058 99.3579 61.1058 99.2551 60.9834C99.1242 61.1827 98.9066 61.2609 98.6813 61.2412L98.6714 61.3538C98.5343 61.4391 98.0691 61.3822 98.1815 61.7649C97.9255 61.7263 97.6135 61.5855 97.4812 61.801L97.3748 61.9051L97.3342 61.9989C96.9977 61.9532 96.4953 62.1362 96.4367 61.6934C96.2115 61.6737 96.1143 61.4868 96.0129 61.3482C96.1453 61.1328 96.3939 60.7006 96.5932 60.8315C96.9114 61.0864 97.3341 60.7018 97.8008 60.7426C97.9269 60.4132 98.4864 60.6891 98.7336 60.273C99.0912 60.0773 99.7579 60.0545 100.021 59.6398C99.8156 59.3949 100.247 59.2866 99.8305 59.0395C99.7157 59.2402 99.4393 59.2484 99.3281 59.2225C99.0246 58.9852 98.7354 59.5111 98.5445 59.2836C98.2193 59.1093 98.3283 59.3458 98.1736 59.4458C97.8617 59.305 97.6181 59.4944 97.1577 59.5677C96.6889 59.7374 96.3124 59.9639 95.8422 60.1497C95.6519 60.1007 95.7108 59.7978 95.6402 59.6781ZM103.415 57.7317C103.415 57.7317 103.093 57.7035 103.057 57.9274L103.369 58.0682L103.359 58.1808C103.359 58.1808 103.256 58.0583 103.134 58.1611L103.238 58.2675L103.114 58.3864C103.218 58.4928 103.643 58.6434 103.363 59.0567L103.27 59.389L103.116 59.4729C103.219 59.5953 103.323 59.5233 103.314 59.6199C103.304 59.7325 103.417 59.7424 103.505 59.8473L103.185 59.8031C103.165 60.0284 103.606 59.9859 103.363 60.1754L103.231 60.3908L103.343 60.4006C103.333 60.5133 103.322 60.642 103.209 60.6321L103.288 60.8498L103.165 60.9525C103.381 61.0849 103.033 61.3463 103.231 61.4934C103.222 61.606 103.1 61.6927 103.186 61.8299L103.289 61.9523C103.269 62.1776 103.065 61.9165 103.045 62.1418C103.146 62.2804 103.138 62.3769 103.25 62.3868C103.229 62.6281 103.138 62.3769 103.015 62.4797C103.117 62.6183 103.092 62.7134 103.205 62.7233L102.971 62.8001L103.073 62.9387C102.961 62.9127 102.953 63.0093 102.953 63.0093C102.953 63.0093 103.051 63.18 103.154 63.3025C103.042 63.2927 102.93 63.2667 102.825 63.3548C103.146 63.399 102.764 63.6899 103.1 63.7355C102.868 63.7963 102.943 64.0461 102.848 64.0215L102.933 64.1587C102.809 64.4721 102.12 64.0065 102.306 64.4767L102.241 64.4711C102.261 64.2458 101.857 64.0483 101.867 63.9357C101.972 63.8476 101.895 63.6139 101.991 63.6223C101.808 63.4928 101.94 63.2774 101.959 63.0682C101.846 63.0584 101.846 63.0584 101.846 63.0584C102.086 62.7227 101.804 62.244 102.166 62.1784C101.967 62.0475 102.196 61.8405 101.987 61.8222C102.093 61.718 102.12 61.5907 102.12 61.5907L102.051 61.2766C102.137 61.3976 102.147 61.285 102.286 61.1836C102.167 61.0598 102.079 60.9548 102.098 60.7295L102.205 60.6253L102.133 60.5217C102.476 60.3085 102.071 59.9326 102.203 59.7172L102.238 59.5095C102.238 59.5095 102.247 59.3968 102.344 59.4053C102.027 59.1344 102.276 59.075 102.184 58.8238L102.093 58.5726C102.21 58.7126 102.22 58.6 102.333 58.6098C102.23 58.4873 101.997 58.3697 102.118 58.283L102.358 58.3202C102.623 57.8894 101.703 58.0197 102.397 57.8697L102.504 57.7655C102.32 57.636 102.351 57.282 102.474 57.1792C102.58 57.075 102.778 57.0437 102.906 57.0549C102.983 57.2886 103.434 57.5064 103.415 57.7317ZM113.628 58.3172L113.605 58.5746C113.691 58.7118 113.551 59.0077 113.758 59.2365L113.618 59.354C113.851 59.4716 113.495 59.6513 113.693 59.7983C113.693 59.7983 113.693 59.7983 113.564 59.787C113.534 60.1249 113.87 60.3651 113.634 60.4741L113.567 60.679C113.605 60.9904 113.492 60.9805 113.519 61.2261L113.413 61.3303C113.746 61.6026 113.434 62.0131 113.308 62.3425C113.533 62.3622 113.396 62.4475 113.369 62.5748C113.369 62.5748 113.272 62.5664 113.15 62.6692C113.359 62.6875 113.349 62.8001 113.339 62.9127C113.329 63.0254 113.243 62.9043 113.233 63.0169L113.321 63.1219L113.092 63.3289C113.066 63.4401 113.179 63.4499 113.179 63.4499C113.267 63.5549 113.17 63.5465 113.046 63.6653L113.142 63.8683L113.02 63.9711C113.132 63.9809 113.121 64.1096 113.218 64.1181C113.218 64.1181 113.111 64.2223 113.103 64.3188C113.103 64.3188 112.998 64.2124 112.99 64.309L113.163 64.5511C113.067 64.5427 113.067 64.5427 113.057 64.6553L113.154 64.6637L113.272 64.7876C113.134 64.889 113.125 64.9855 113.114 65.1143C112.999 65.315 112.577 65.3267 112.464 65.3168C112.482 65.1076 111.788 65.0793 112.025 64.7758C112.151 64.4463 111.971 64.2846 112.201 64.0616C112.01 63.8341 112.177 63.4109 112.309 63.1955C112.205 63.0891 112.333 62.922 112.24 62.6869C112.268 62.5596 112.399 62.3602 112.408 62.2476C112.306 62.1251 112.203 62.0026 112.096 62.1068C111.968 62.0956 111.948 62.3208 111.845 62.1983C111.845 62.1983 111.845 62.1983 111.742 62.0759C111.612 62.2752 111.394 62.3534 111.169 62.3337L111.159 62.4463C111.022 62.5316 110.556 62.4747 110.669 62.8574C110.413 62.8188 110.101 62.678 109.969 62.8935L109.862 62.9976L109.821 63.0914C109.485 63.0457 108.983 63.2287 108.924 62.7859C108.699 62.7662 108.602 62.5793 108.5 62.4407C108.633 62.2253 108.881 61.7931 109.081 61.924C109.399 62.1789 109.821 61.7943 110.288 61.8351C110.414 61.5057 110.974 61.7816 111.221 61.3655C111.579 61.1698 112.245 61.147 112.509 60.7323C112.303 60.4874 112.734 60.3791 112.318 60.132C112.203 60.3327 111.927 60.3409 111.815 60.315C111.512 60.0777 111.223 60.6036 111.032 60.3761C110.707 60.2018 110.816 60.4383 110.661 60.5383C110.349 60.3975 110.105 60.5869 109.645 60.6602C109.176 60.8299 108.883 61.0312 108.413 61.2171C108.274 61.3185 107.817 61.3595 107.9 61.7072C108.104 61.9683 107.638 62.1059 107.939 62.3754C107.607 62.4599 108.012 62.8358 107.664 62.9188C107.656 63.0154 107.768 63.0252 107.734 63.233L107.621 63.2231C107.827 63.4681 107.355 63.67 107.675 63.9088C107.562 63.8989 107.562 63.8989 107.422 64.0164L107.485 64.5894C107.384 64.4508 107.373 64.5795 107.26 64.5697C107.364 64.6761 107.354 64.7887 107.354 64.7887L107.242 64.7788C107.307 65.1413 107.06 65.1845 106.944 65.4013C106.741 65.4971 106.419 65.2905 106.296 65.2149C106.13 64.5194 106.732 63.9398 106.59 63.1491L106.73 63.0317C106.515 62.8993 106.773 62.7274 106.784 62.5986C106.905 62.512 106.915 62.3993 106.802 62.3895C106.843 61.9229 106.897 61.4898 107.038 61.1779C106.982 60.7028 107.28 60.4532 107.223 59.9942C107.344 59.9076 107.354 59.7949 107.365 59.6662C107.365 59.6662 107.45 59.8034 107.461 59.6747C107.394 59.3283 107.027 59.6366 106.82 59.4078C106.736 59.2545 106.716 59.4798 106.475 59.4587C105.807 59.4975 105.542 59.5554 104.85 59.6894C104.981 58.5659 106.375 58.7527 107.07 58.5866C107.502 58.6568 108.117 58.4836 108.686 58.6469C108.578 58.7672 108.57 58.8637 108.425 58.851C108.56 58.9763 108.254 59.3225 108.357 59.445C108.326 59.7989 108.261 59.9878 108.13 60.1871C108.11 60.4124 108.023 60.4858 108.113 60.7531C108.224 60.779 108.358 60.5475 108.487 60.5588L108.496 60.4462C109.448 59.7674 110.445 59.3033 111.71 59.3005C112.038 59.2482 112.405 60.0586 112.557 59.6179C112.505 59.289 112.621 59.0722 112.553 58.742C112.669 58.5252 112.738 58.1096 112.983 57.9041C113.094 57.93 113.757 57.9556 113.628 58.3172ZM115.918 58.8256C115.918 58.8256 115.596 58.7975 115.56 59.0213L115.872 59.1621L115.862 59.2747C115.862 59.2747 115.76 59.1522 115.637 59.255L115.741 59.3614L115.618 59.4803C115.722 59.5867 116.146 59.7373 115.867 60.1506L115.773 60.4829L115.62 60.5668C115.723 60.6892 115.826 60.6172 115.818 60.7138C115.808 60.8264 115.92 60.8363 116.009 60.9413L115.688 60.897C115.668 61.1223 116.11 61.0798 115.866 61.2693L115.734 61.4847L115.847 61.4946C115.837 61.6072 115.825 61.7359 115.713 61.7261L115.791 61.9437L115.669 62.0464C115.884 62.1788 115.537 62.4403 115.735 62.5873C115.725 62.6999 115.604 62.7866 115.689 62.9238L115.792 63.0462C115.772 63.2715 115.568 63.0104 115.548 63.2357C115.65 63.3743 115.641 63.4708 115.754 63.4807C115.733 63.722 115.641 63.4708 115.519 63.5736C115.62 63.7122 115.596 63.8073 115.708 63.8172L115.475 63.894L115.576 64.0326C115.465 64.0066 115.456 64.1032 115.456 64.1032C115.456 64.1032 115.555 64.2739 115.658 64.3964C115.545 64.3866 115.434 64.3606 115.329 64.4487C115.649 64.493 115.267 64.7838 115.603 64.8294C115.371 64.8902 115.447 65.14 115.351 65.1154L115.437 65.2526C115.312 65.566 114.639 65.1018 114.825 65.572L114.729 65.5636C114.748 65.3383 114.344 65.1408 114.354 65.0282C114.459 64.9401 114.382 64.7064 114.479 64.7148C114.295 64.5853 114.428 64.3699 114.446 64.1607C114.333 64.1509 114.333 64.1509 114.333 64.1509C114.574 63.8152 114.291 63.3365 114.654 63.2709C114.454 63.14 114.683 62.933 114.474 62.9147C114.58 62.8105 114.608 62.6832 114.608 62.6832L114.538 62.3691C114.625 62.4901 114.634 62.3775 114.773 62.2761C114.654 62.1523 114.566 62.0473 114.586 61.822L114.692 61.7178L114.62 61.6142C114.963 61.401 114.558 61.0251 114.691 60.8097L114.725 60.602C114.725 60.602 114.735 60.4893 114.831 60.4978C114.515 60.2269 114.763 60.1675 114.671 59.9163L114.58 59.6651C114.697 59.8051 114.707 59.6925 114.82 59.7023C114.717 59.5798 114.484 59.4622 114.605 59.3755L114.845 59.4127C115.11 58.9819 114.191 59.1122 114.885 58.9622L114.991 58.858C114.808 58.7285 114.839 58.3745 114.961 58.2717C115.068 58.1675 115.265 58.1362 115.394 58.1474C115.47 58.3811 115.938 58.6003 115.918 58.8256ZM121.653 59.9111C121.725 60.2091 121.909 60.3226 121.787 60.6037C122.052 60.9187 121.577 60.7799 121.842 61.0949L121.64 61.1745C121.728 61.2795 121.623 61.3676 121.615 61.4642C121.518 61.4557 121.606 61.5607 121.606 61.5607C121.291 61.825 120.965 62.0396 120.561 62.1989C120.36 62.2785 120.023 62.2329 119.998 62.5225C119.797 62.6022 119.792 62.6504 119.687 62.7385C119.759 63.0366 119.368 63.0511 119.527 63.4541L119.327 63.5177C119.512 63.6311 119.084 64.08 119.478 64.0173C120.477 63.7156 121.181 63.8258 122.172 63.6206C122.542 63.653 123.407 63.4044 123.724 63.8537C123.399 63.6794 123.44 64.6882 122.991 64.4543C122.982 64.5508 122.781 64.6305 122.693 64.5255L122.491 64.6051C122.185 64.7729 121.895 64.7476 121.605 64.7222L121.698 64.7789L121.693 64.8272C121.228 64.5919 120.879 65.2423 120.413 65.007C120.203 65.1832 119.72 65.141 119.414 65.3087C119.229 65.1953 119.116 65.3799 118.931 65.2665C118.818 65.4511 118.642 65.2412 118.528 65.4258C118.23 65.497 117.757 65.715 117.379 65.5847C117.476 65.5931 117.484 65.4966 117.581 65.505L117.396 65.3916C117.308 65.2866 117.358 64.9019 117.27 64.7969C117.199 64.4988 117.66 64.4095 117.967 64.2418C118.072 64.1537 118.185 63.969 118.378 63.9859C118.202 63.776 118.411 63.6159 118.428 63.4228L118.524 63.4312C118.629 63.3431 118.533 63.3347 118.541 63.2381C118.655 63.0535 118.565 62.9646 118.775 62.7884C118.704 62.4903 118.898 62.4911 118.819 62.2896L118.368 62.2502C118.377 62.1537 118.385 62.0571 118.482 62.0656C118.394 61.9606 118.207 61.8632 118.224 61.6702C118.329 61.5821 118.426 61.5905 118.522 61.599C118.531 61.5024 118.434 61.494 118.434 61.494C118.434 61.494 118.443 61.3974 118.548 61.3093C118.46 61.2043 118.67 61.0282 118.783 60.8435C118.8 60.6504 118.922 60.3693 119.123 60.2896L119.044 60.0881C119.245 60.0084 118.964 59.8866 119.069 59.7985C119.392 59.4376 120.055 58.9119 120.537 58.9541C120.713 59.1641 121.381 59.6926 121.653 59.9111ZM124.298 66.7413L124.193 66.8294C124.08 67.014 124.063 67.2071 124.143 67.4086C124.038 67.4967 124.029 67.5933 124.029 67.5933C124.214 67.7067 124.012 67.7863 124.004 67.8829C123.714 67.8576 123.899 67.971 123.794 68.0591L123.874 68.2606C123.874 68.2606 123.769 68.3487 123.76 68.4452C123.664 68.4368 123.672 68.3403 123.567 68.4283L123.848 68.5502C123.831 68.7433 123.524 68.9271 123.7 69.1371C123.595 69.2252 123.578 69.4183 123.473 69.5064L123.618 69.5191C123.471 69.5225 123.44 69.6981 123.359 69.691L123.334 69.9806C123.246 69.8757 123.238 69.9722 123.141 69.9638L123.229 70.0687C123.221 70.1653 122.814 70.1784 122.718 70.1699C122.638 69.9684 122.385 69.8976 122.297 69.7926C122.498 69.713 122.314 69.5995 122.314 69.5995C122.234 69.398 122.553 69.0854 122.385 68.7789C122.587 68.6993 122.425 68.3284 122.538 68.1438C122.459 67.9422 122.853 67.8795 122.669 67.7661C122.79 67.4849 122.644 67.4883 122.758 67.3037C122.758 67.3037 122.854 67.3121 122.863 67.2156C122.703 66.8125 122.444 67.179 122.163 67.0571C122.075 66.9521 121.962 67.1367 121.865 67.1283C121.882 66.9352 121.698 67.0002 121.575 67.1029L121.672 67.1114C121.663 67.2079 121.558 67.296 121.47 67.191L121.487 66.998C121.391 66.9895 121.374 67.1826 121.189 67.0692C121.11 66.8676 120.996 67.0523 120.9 67.0438C120.891 67.1404 120.803 67.0354 120.707 67.0269C120.618 66.9219 120.332 66.8644 120.252 66.6629C120.112 66.4075 120.315 66.1333 120.54 66.153C121.409 66.2291 122.294 66.112 123.101 65.7934C123.575 65.9322 124.131 66.2403 124.298 66.7413ZM120.226 55.4734C120.226 55.4734 120.217 55.57 120.121 55.5615L120.209 55.6665L120.104 55.7546C120.104 55.7546 120.192 55.8596 120.183 55.9561L119.982 56.0358C120.078 56.0442 120.167 56.1492 120.062 56.2373C120.15 56.3423 120.053 56.3338 120.045 56.4304C119.914 56.8081 119.89 57.0816 119.76 57.4594C120.138 57.5897 120.286 57.3757 120.576 57.401C120.891 57.1367 121.357 57.372 121.672 57.1078C122.154 57.15 122.646 57.2741 122.919 57.4925C122.9 57.5233 122.778 57.8045 122.743 57.8338C122.444 58.0995 122.08 58.0028 121.614 58.1403C121.211 58.2996 120.719 58.354 120.22 58.5048C119.922 58.576 119.536 58.5422 119.309 58.9115C118.923 58.8777 118.625 58.9489 118.327 59.0201C118.318 59.1167 118.31 59.2132 118.213 59.2047C118.117 59.1963 118.012 59.2844 117.923 59.1794C117.81 59.364 117.539 58.935 117.346 58.9181C117.502 58.2508 117.927 58.4014 118.347 58.0491C118.548 57.9694 118.741 57.9863 118.855 57.8017C118.977 57.5205 118.786 57.4714 119.005 57.1987L118.917 57.0937C119.03 56.9091 119.148 56.6762 119.068 56.4746C119.278 56.2985 119.228 56.1319 119.245 55.9388C119.332 55.8654 119.53 55.6396 119.629 55.4374C119.785 55.3214 120.015 55.2928 120.226 55.4734ZM125.782 60.1588C125.677 60.2469 125.765 60.3519 125.66 60.44C125.845 60.5534 125.644 60.6331 125.732 60.738C125.635 60.7296 125.628 60.8101 125.546 60.8191C125.593 60.8394 125.522 60.9142 125.618 60.9227L125.715 60.9311C125.61 61.0192 125.689 61.2208 125.496 61.2039L125.584 61.3088L125.479 61.3969L125.567 61.5019C125.559 61.5985 125.463 61.59 125.382 61.583C125.461 61.6061 125.454 61.6866 125.551 61.695C125.534 61.8881 125.358 61.6781 125.437 61.8796C125.823 61.9134 125.307 62.2574 125.588 62.3792C125.491 62.3708 125.483 62.4673 125.386 62.4589C125.571 62.5723 125.458 62.757 125.546 62.8619L125.336 63.0381C125.714 63.1685 125.205 63.4159 125.487 63.5377L125.294 63.5208L125.47 63.7308L125.365 63.8189L125.356 63.9155C125.243 64.1001 125.146 64.0916 124.936 64.2678L125.323 64.3016C125.201 64.5828 124.929 64.3483 124.896 64.7344C124.799 64.726 124.441 64.7433 124.432 64.8398C124.424 64.9364 124.102 64.7298 124.013 64.6248C124.223 64.4487 124.068 63.9973 124.19 63.7161L124.216 63.4265L124.321 63.3384L124.241 63.1369C124.337 63.1453 124.249 63.0404 124.258 62.9438L124.308 62.3646L124.405 62.373L124.229 62.163C124.447 61.8903 124.174 61.6719 124.393 61.3992C124.305 61.2942 124.41 61.2061 124.418 61.1095C124.364 60.6184 124.687 60.2576 124.536 59.758L124.641 59.6699C124.545 59.6614 124.709 59.4488 124.814 59.3607C125.096 59.4826 125.711 59.8607 125.782 60.1588ZM120.711 60.2988C120.535 60.0889 120.423 59.8845 120.037 59.8507L120.117 60.0523L119.915 60.1319L120.108 60.1488C120.092 60.3419 119.896 60.5356 119.695 60.6152C119.581 60.7999 119.562 61.0251 119.36 61.1048C119.65 61.1301 119.338 61.3622 119.338 61.3622C119.522 61.4757 119.224 61.5469 119.312 61.6518C119.69 61.7822 119.938 61.5444 120.244 61.3767C120.576 60.9193 121.047 60.9119 120.711 60.2988Z" fill="black"/>
<mask id="mask0_1443_15060" style="mask-type:alpha" maskUnits="userSpaceOnUse" x="24" y="2" width="225" height="223">
<path d="M24.1719 85.5611C24.1719 81.6543 24.1719 79.701 24.7103 77.9279C25.187 76.3582 25.9686 74.8978 27.0102 73.6305C28.1868 72.1989 29.8121 71.1154 33.0627 68.9483L125.406 7.38637C129.408 4.71793 131.41 3.38371 133.573 2.86535C135.484 2.40725 137.477 2.40725 139.389 2.86535C141.552 3.38371 143.553 4.71793 147.556 7.38637L239.899 68.9483C243.15 71.1154 244.775 72.1989 245.951 73.6305C246.993 74.8978 247.775 76.3582 248.251 77.9279C248.79 79.701 248.79 81.6543 248.79 85.5611V204.655C248.79 211.644 248.79 215.138 247.43 217.807C246.233 220.155 244.324 222.064 241.976 223.261C239.307 224.621 235.813 224.621 228.824 224.621H44.1379C37.1491 224.621 33.6548 224.621 30.9854 223.261C28.6374 222.064 26.7284 220.155 25.532 217.807C24.1719 215.138 24.1719 211.644 24.1719 204.655V85.5611Z" fill="black"/>
</mask>
<g mask="url(#mask0_1443_15060)">
<g filter="url(#filter3_di_1443_15060)">
<path d="M24.1738 74.875L24.1738 224.62L100.492 165.535C107.436 160.159 110.908 157.471 112.158 154.2C113.252 151.333 113.252 148.163 112.158 145.296C110.908 142.024 107.436 139.336 100.492 133.96L24.1738 74.875Z" fill="url(#paint4_linear_1443_15060)"/>
</g>
<path fill-rule="evenodd" clip-rule="evenodd" d="M22.6133 71.6953L22.6133 227.801L109.093 160.849C116.353 155.229 116.353 144.268 109.093 138.648L22.6133 71.6953ZM24.1731 74.8756L108.138 139.881C114.591 144.877 114.591 154.62 108.138 159.616L24.1731 224.621L24.1731 74.8756Z" fill="#475569" fill-opacity="0.06"/>
<path fill-rule="evenodd" clip-rule="evenodd" d="M250.246 71.6953L250.246 227.801L163.766 160.849C156.507 155.229 156.507 144.268 163.766 138.648L250.246 71.6953ZM248.686 74.8756L164.721 139.881C158.268 144.877 158.268 154.62 164.721 159.616L248.686 224.621L248.686 74.8756Z" fill="#475569" fill-opacity="0.06"/>
<g filter="url(#filter4_di_1443_15060)">
<path d="M248.793 74.875L248.793 224.62L172.475 165.535C165.531 160.159 162.059 157.471 160.809 154.2C159.714 151.333 159.714 148.163 160.809 145.296C162.059 142.024 165.531 139.336 172.475 133.96L248.793 74.875Z" fill="url(#paint5_linear_1443_15060)"/>
</g>
<g style="mix-blend-mode:multiply" opacity="0.4">
<g filter="url(#filter5_f_1443_15060)">
<path d="M28.8516 224.621L244.11 224.621L149.826 139.901C145.108 135.662 142.75 133.543 140.083 132.739C137.734 132.031 135.228 132.031 132.879 132.739C130.212 133.543 127.854 135.662 123.136 139.901L28.8516 224.621Z" fill="#334155" fill-opacity="0.4"/>
</g>
<g filter="url(#filter6_f_1443_15060)">
<path d="M41.3301 224.621H231.631L151.343 135.119C146.198 129.383 143.625 126.515 140.593 125.457C137.93 124.528 135.031 124.528 132.368 125.457C129.336 126.515 126.764 129.383 121.618 135.119L41.3301 224.621Z" fill="#334155" fill-opacity="0.2"/>
</g>
<g filter="url(#filter7_f_1443_15060)">
<path d="M28.8516 224.621L244.11 224.621L151.084 124.853C146.008 119.409 143.47 116.687 140.503 115.677C137.895 114.789 135.067 114.789 132.459 115.677C129.492 116.687 126.954 119.409 121.878 124.853L28.8516 224.621Z" fill="#334155" fill-opacity="0.1"/>
</g>
</g>
<g filter="url(#filter8_i_1443_15060)">
<path d="M24.1719 224.621L248.79 224.621L149.509 139.129C144.887 135.148 142.576 133.158 139.982 132.4C137.696 131.732 135.266 131.732 132.98 132.4C130.386 133.158 128.075 135.148 123.453 139.129L24.1719 224.621Z" fill="url(#paint6_linear_1443_15060)"/>
</g>
<path d="M26.5117 221.501L123.26 138.476C127.951 134.45 130.297 132.437 132.928 131.671C135.247 130.996 137.71 130.997 140.028 131.675C142.658 132.444 145.002 134.46 149.689 138.491L248.01 223.061" stroke="#475569" stroke-opacity="0.06" stroke-width="1.55985"/>
<g filter="url(#filter9_f_1443_15060)">
<path d="M24.1719 103.733L24.1719 224.621H248.79V103.733" stroke="url(#paint7_linear_1443_15060)" stroke-width="24.9575"/>
</g>
<path d="M24.1719 81.1143V204.654C24.1719 211.643 24.1719 215.137 25.532 217.807C26.7284 220.155 28.6374 222.064 30.9854 223.26C33.6548 224.62 37.1491 224.62 44.1379 224.62H228.824C235.813 224.62 239.307 224.62 241.976 223.26C244.324 222.064 246.233 220.155 247.43 217.807C248.79 215.137 248.79 211.643 248.79 204.654V81.1143" stroke="white" stroke-opacity="0.4" stroke-width="3.11969" stroke-linecap="round"/>
</g>
<path d="M119.893 144.429L120.458 145.405C119.482 146.022 118.814 146.69 118.197 146.998L118.197 147.307C118.402 147.307 118.454 147.152 118.505 147.101L118.505 147.666C118.197 147.666 117.837 146.998 117.529 147.666C117.837 148.283 117.22 148.283 117.22 148.951C116.244 148.643 117.22 149.568 116.244 149.259C114.959 149.928 115.781 151.521 113.88 151.161L113.52 151.521C113.88 151.829 114.188 151.521 114.188 151.521L114.188 152.137C113.88 151.829 113.52 152.137 113.212 151.829L113.212 152.137C113.212 152.497 113.52 152.497 113.88 152.497C113.52 152.805 113.212 152.805 113.212 153.114L113.52 153.422L113.674 153.268C113.417 153.525 113.212 153.833 113.212 154.09C116.141 154.09 119.071 152.548 121.64 154.81C121.64 155.118 122.257 155.992 122.257 155.992C121.64 155.683 121.486 156.66 120.818 156.968C120.818 157.945 119.533 157.636 119.225 158.253C119.225 158.561 119.841 158.253 120.201 158.253L119.533 158.561C118.865 158.253 118.557 159.229 118.248 159.229C118.557 159.538 118.248 159.538 118.248 159.897C117.94 159.897 117.58 159.897 117.58 160.206L117.94 160.514C117.94 160.514 116.963 161.182 116.604 161.491C116.604 161.182 115.987 161.182 115.679 161.182C115.679 161.491 115.319 161.491 115.319 161.799L115.987 162.159C115.679 162.467 115.011 162.775 114.342 163.084C114.651 163.084 114.959 163.341 115.216 163.135C114.651 163.752 113.983 163.752 113.417 163.752C114.034 164.42 114.702 164.214 115.319 163.906C117.94 162.93 119.996 162.364 122.873 161.748C123.233 162.056 124.364 162.57 124.672 163.187C124.672 163.546 123.233 163.855 123.542 164.523C123.233 165.191 122.873 165.191 122.565 165.499C122.565 165.499 121.589 165.807 120.972 166.476C120.972 166.476 120.612 166.476 120.612 166.116C119.687 167.452 118.043 166.784 117.426 167.76L117.426 168.069C116.09 167.76 114.805 169.045 113.829 167.76L113.212 167.76L113.52 168.069C113.212 169.045 111.259 167.092 110.283 168.069L110.283 167.452C109.974 167.452 109.974 167.092 109.614 167.092C109.614 166.784 109.306 166.784 108.998 166.784C108.998 167.092 108.638 167.092 108.33 167.092C108.998 166.784 108.33 165.448 108.638 165.139C109.974 163.855 111.259 162.261 112.544 160.925C113.829 159.641 114.754 159.795 115.422 158.202C115.73 158.202 116.038 157.533 116.398 157.225C115.73 156.557 114.445 157.842 113.777 156.865L112.801 157.533L110.54 157.842C110.54 157.842 110.54 157.533 110.899 157.533C110.899 157.842 111.208 157.533 111.208 157.533C110.899 156.865 110.18 157.276 109.871 156.608C109.512 156.917 108.895 156.608 108.895 156.3L108.227 156.3C108.895 153.062 110.54 150.133 112.801 148.54C113.16 148.232 112.801 147.872 112.801 147.872C111.876 147.872 111.516 148.54 110.54 148.54C109.923 148.848 109.769 148.489 109.152 149.157C108.792 148.797 108.484 149.773 107.867 149.465C107.867 149.773 106.891 149.465 106.531 149.773C106.891 149.157 105.914 149.465 105.914 149.157C105.914 149.157 105.452 148.437 105.76 148.437C105.452 147.82 105.092 148.283 104.784 147.615C105.092 146.638 107.045 147.358 107.713 146.382C108.381 146.69 108.381 145.765 108.998 146.073C109.306 145.097 111.567 145.097 112.544 144.429C113.52 143.504 114.805 144.12 115.473 143.504C117.066 143.144 118.557 143.812 119.893 144.429ZM121.383 119.966C121.383 120.275 121.075 121.302 120.766 121.302L121.075 121.611C121.075 121.611 120.766 121.611 120.766 121.919C120.766 121.919 120.766 122.279 121.075 122.279C121.075 122.279 120.766 122.587 120.458 122.587L120.458 122.896C120.458 122.896 120.098 123.666 120.458 123.975L120.098 124.335C120.098 124.643 120.458 124.335 120.458 124.335C120.458 124.643 120.766 124.951 120.458 125.26C121.075 126.596 122.257 125.208 123.233 126.185L124.518 126.185C125.34 126.236 126.163 126.853 126.214 127.11C126.265 127.418 125.443 127.778 124.518 128.035C122.873 128.343 121.743 127.983 120.098 128.651C119.79 129.268 119.79 129.885 119.482 130.502C119.79 130.502 119.79 130.81 119.79 130.81C120.098 131.17 119.482 131.478 119.482 131.478L119.636 132.557C118.454 134.356 117.734 134.407 116.758 133.328C116.758 132.66 115.679 131.118 116.347 130.45C116.038 130.142 115.679 130.142 115.37 129.833C112.801 130.45 110.951 131.735 108.689 132.095C108.638 132.609 107.61 132.095 106.685 133.02C106.377 133.02 106.428 133.379 106.12 133.02L105.76 133.379C105.349 133.431 102.882 132.763 102.677 131.941C103.036 130.964 104.784 130.553 105.452 129.936C107.405 128.651 110.283 128.651 112.235 127.315C113.52 127.007 114.548 126.647 115.524 125.979C116.193 124.694 115.524 123.666 116.501 122.741L116.501 122.073C113.263 121.765 110.694 123.615 107.764 123.975C106.48 124.283 105.503 125.26 104.218 125.26L104.218 125.876C103.242 125.876 101.854 124.54 101.238 123.872C105.092 122.228 109.974 120.891 114.188 119.607C116.45 119.298 119.482 118.682 121.383 119.966ZM128.629 135.281L129.195 135.589L128.989 136.669C128.424 136.977 127.601 136.72 126.985 137.285L127.293 137.285C125.34 137.594 123.593 137.851 121.64 138.005C120.407 138.313 118.762 138.262 117.477 138.827C113.52 139.701 109.923 140.883 106.017 141.91C104.064 142.527 102.06 143.761 99.8501 143.349C99.4904 142.99 97.7944 142.527 98.1542 141.499C99.439 140.831 101.083 140.985 102.111 139.752C104.784 138.262 108.073 138.107 110.694 136.874C111.978 136.925 113.006 135.641 114.599 136.103C118.145 134.87 122.514 134.099 126.368 134.613C127.036 135.23 127.653 134.973 128.629 135.281ZM113.88 153.114L113.674 153.268L113.88 153.114ZM144.572 123.461L143.852 123.461C143.852 123.872 143.544 124.9 143.544 125.26C142.927 125.26 142.362 126.236 142.053 126.596C141.025 127.726 140.871 127.932 139.689 128.96L139.381 129.731C138.661 130.758 137.685 130.964 137.685 131.992L137.017 132.3L137.325 132.763C137.017 132.763 136.503 133.071 136.503 133.379C138.353 134.099 138.97 132.3 140.82 132.609C141.128 131.889 141.899 132.197 142.208 132.3C142.67 133.071 142.978 133.379 143.698 134.099C143.698 134.407 142.927 135.127 143.235 135.538L143.646 135.538C143.646 136.155 142.927 135.538 142.619 136.155C142.927 136.155 143.235 136.155 142.927 136.669C142.619 136.669 142.927 137.337 142.619 137.645C142.156 139.392 141.437 140.317 140.717 142.167C141.128 142.476 142.156 142.476 142.927 142.167C144.674 141.705 145.24 140.523 146.936 140.523C146.936 140.831 147.295 140.831 147.295 140.831C147.295 140.523 147.655 140.523 147.655 140.523L148.426 140.215C149.145 139.855 150.995 140.215 152.486 139.855C152.486 140.831 151.355 140.215 151.818 140.831C152.846 141.551 150.687 143.349 150.687 144.12C148.991 144.12 148.118 145.559 146.627 145.559C146.267 145.868 146.627 146.227 145.908 145.868C145.599 145.559 144.931 146.227 144.623 146.536C143.492 147.05 142.259 146.998 141.488 148.026C140.717 147.718 137.428 148.694 137.428 148.232C137.428 147.923 137.428 147.923 137.068 147.923L136.76 148.232L136.452 147.923C136.452 147.923 136.76 147.923 136.76 147.564C136.041 147.255 136.041 147.923 135.732 148.643C135.732 147.564 136.76 145.508 136.041 144.531C136.76 144.531 136.76 143.863 137.068 143.863C137.068 143.195 137.479 142.013 137.891 141.653C138.302 139.958 138.816 139.598 139.124 138.262C139.432 137.953 139.432 137.439 139.432 137.131C136.966 136.412 134.499 139.135 132.032 137.337L131.672 137.337C132.032 135.589 133.368 132.763 134.55 131.427C136.297 129.32 137.531 127.418 139.175 126.082C138.559 125.362 137.428 126.082 136.246 126.082C134.91 126.75 134.19 126.75 133.214 127.058L133.214 127.418C132.495 128.24 130.85 126.596 129.822 126.956C130.131 126.287 131.158 123.461 132.649 123.821C133.008 123.05 134.036 123.821 134.704 123.461C137.274 122.69 139.843 121.971 142.362 121.662C142.67 122.33 144.16 122.741 144.572 123.461ZM160.092 148.643L160.451 149.516C160.092 150.339 160.76 151.521 160.092 152.189C160.092 152.189 160.76 152.394 160.092 152.805L159.732 153.576L160.092 153.576C160.092 154.193 160.76 154.964 160.092 155.324C160.451 155.94 159.732 157.122 159.732 157.739L160.092 157.739C160.451 158.458 159.732 158.87 159.424 159.178C160.451 159.178 159.424 159.949 159.732 160.309C159.424 160.668 159.732 160.977 159.424 160.977L159.732 161.285C158.601 162.005 159.013 163.135 157.933 163.855C157.882 164.163 155.775 164.523 155.826 164.214C155.158 163.495 155.826 163.135 155.826 162.416L155.826 162.005L155.518 162.005C155.826 161.285 156.546 160.977 156.237 160.668L155.826 160.668C156.546 159.949 155.518 158.458 156.237 157.739L156.546 157.431C155.826 157.431 156.546 156.763 156.546 156.454L156.546 155.94C155.826 155.94 156.546 155.324 156.546 155.324L156.289 154.964L156.546 154.604C156.854 154.193 156.854 153.885 156.546 153.576C156.546 152.086 156.854 151.572 156.237 150.904C155.826 150.493 155.158 150.493 154.85 150.493C154.49 151.212 153.668 150.082 153.308 150.904C153 150.904 152.846 150.082 152.537 150.904L152.846 151.212C151.458 151.212 149.916 151.778 148.529 151.058C148.118 150.75 149.351 149.362 148.991 148.951C148.991 148.591 149.711 148.951 149.711 148.283C149.351 148.283 148.631 148.283 148.631 147.975C149.711 146.895 151.664 147.975 153.154 147.255C154.49 146.587 156.7 146.587 158.036 145.713C158.807 146.227 159.732 147.615 160.092 148.643ZM161.788 131.015C161.171 131.015 161.12 131.632 161.428 132.197C162.045 133.482 160.092 134.87 161.325 135.795C161.017 135.846 160.965 136.514 160.657 136.771L160.965 136.823C160.914 137.131 161.274 137.594 160.606 137.851L160.914 137.902C160.965 138.21 160.657 138.159 160.349 138.519C160.297 138.827 160.914 138.827 160.965 139.084C160.657 139.084 160.297 139.392 160.297 139.701C160.606 140.009 160.606 140.009 160.606 140.317C160.297 140.317 159.681 140.317 159.372 140.934C159.681 140.934 159.938 141.242 160.297 141.551L159.938 142.167C159.629 141.859 159.578 143.092 159.013 142.424C158.704 142.784 157.265 143.195 156.649 143.195C156.649 142.887 156.083 142.887 156.083 142.27C156.083 141.962 156.7 142.322 156.7 141.705C156.392 141.705 156.083 141.653 156.083 141.088L157.008 141.088C156.751 140.831 156.392 140.471 156.443 139.855C156.751 139.855 156.751 139.855 157.06 139.546C156.443 139.238 156.443 138.621 156.803 138.313C156.803 137.388 157.162 135.641 157.162 135.024L156.905 134.716C157.522 134.407 156.957 133.585 157.574 132.968C157.574 132.043 157.317 131.17 157.625 130.193C157.933 130.245 157.933 130.245 157.933 130.245L157.676 129.885L157.933 129.628L157.676 128.96C157.676 128.651 158.344 128.497 158.601 128.549C159.526 128.857 161.479 129.782 161.788 131.015ZM174.75 127.058L174.75 127.675C174.75 127.675 174.441 127.058 174.441 127.675C174.801 127.932 175.726 127.932 175.675 128.549C175.777 128.806 175.161 128.857 174.852 128.857C175.161 129.165 175.469 129.114 175.777 129.114L175.161 129.474C175.675 130.039 175.623 130.039 175.52 130.399C175.315 130.707 175.932 130.964 175.88 131.272C175.315 131.015 175.058 131.632 174.441 132.043L174.75 132.249C174.801 132.557 175.109 132.557 175.418 132.866C174.75 133.02 175.058 134.099 174.03 134.767C174.647 135.075 175.212 134.407 175.572 134.716C175.572 135.024 174.955 135.024 175.263 135.332C174.698 135.692 175.058 136.257 175.058 136.566C174.75 136.566 174.493 136.669 174.441 136.977C174.493 137.594 174.801 137.491 175.161 137.799C174.852 138.107 174.544 138.21 174.236 138.519C174.236 138.519 175.212 138.724 174.955 139.033C174.595 139.444 174.595 139.444 174.39 140.06C174.081 140.06 174.39 140.369 174.441 140.677C175.366 141.551 173.67 142.938 174.595 143.555C174.595 143.761 174.338 144.172 174.03 144.531C174.287 144.48 174.441 144.737 174.698 144.737C174.39 144.84 174.03 145.148 173.773 145.405L174.493 146.022C173.876 146.073 173.516 146.382 173.311 146.69L173.927 146.998L173.002 147.05C173.054 147.666 173.619 146.947 173.979 147.615C173.722 148.18 172.745 147.666 172.437 148.026C172.129 148.026 172.488 148.334 172.488 148.334L172.797 148.283C172.129 149.311 171.46 149.414 171.049 148.951C170.741 148.643 170.998 148.334 170.638 147.718C170.947 147.409 171.255 147.358 171.204 147.05L170.895 146.793L171.152 146.433L170.844 146.484L170.792 145.559C171.101 145.559 171.358 145.251 171.409 144.943L170.69 144.326C171.255 143.658 170.947 143.401 170.895 142.784L170.844 142.476C170.844 142.476 171.152 142.424 171.204 142.116C170.227 142.219 171.101 141.499 171.101 141.191C171.049 140.883 171.049 140.78 170.741 140.831L170.844 140.369L171.049 140.163C170.69 139.906 170.947 139.546 170.69 139.289C170.947 139.238 170.998 139.238 171.204 139.238C170.947 139.187 170.947 138.93 170.947 138.93C171.563 138.93 170.895 138.313 170.535 138.056C171.152 138.005 170.535 137.439 170.792 137.08L171.101 137.08L170.792 136.771L170.69 135.538C171.306 134.613 170.535 133.431 171.46 132.763C171.152 132.763 170.792 132.454 170.792 132.146C171.306 131.529 171.255 129.988 171.204 129.063C172.077 128.703 170.176 127.881 171.358 127.161C171.615 126.493 173.979 125.157 174.75 127.058ZM175.623 154.09L174.184 155.015C174.698 155.375 175.675 155.838 175.212 156.454L174.75 156.814L175.109 157.071C174.955 157.02 174.595 156.917 174.236 157.122L175.212 157.739C174.75 157.739 173.876 158.099 173.876 158.407C173.413 158.099 172.54 157.431 171.563 157.431C170.073 156.814 171.563 154.707 170.073 154.399L170.587 154.09C170.073 154.09 170.587 153.73 170.073 153.422C170.073 153.114 171.717 151.932 170.227 151.623C169.765 151.315 170.227 151.623 170.741 151.315C172.18 152.292 175.161 152.805 175.623 154.09ZM175.109 157.071L175.212 157.122C175.212 157.122 175.161 157.122 175.109 157.071Z" fill="#555252"/>
<defs>
<filter id="filter0_i_1443_15060" x="0" y="84.7969" width="277" height="191.358" filterUnits="userSpaceOnUse" color-interpolation-filters="sRGB">
<feFlood flood-opacity="0" result="BackgroundImageFix"/>
<feBlend mode="normal" in="SourceGraphic" in2="BackgroundImageFix" result="shape"/>
<feColorMatrix in="SourceAlpha" type="matrix" values="0 0 0 0 0 0 0 0 0 0 0 0 0 0 0 0 0 0 127 0" result="hardAlpha"/>
<feOffset dy="4"/>
<feGaussianBlur stdDeviation="2"/>
<feComposite in2="hardAlpha" operator="arithmetic" k2="-1" k3="1"/>
<feColorMatrix type="matrix" values="0 0 0 0 0 0 0 0 0 0 0 0 0 0 0 0 0 0 0.15 0"/>
<feBlend mode="normal" in2="shape" result="effect1_innerShadow_1443_15060"/>
</filter>
<filter id="filter1_dddd_1443_15060" x="3.89317" y="32.7568" width="265.175" height="258.935" filterUnits="userSpaceOnUse" color-interpolation-filters="sRGB">
<feFlood flood-opacity="0" result="BackgroundImageFix"/>
<feColorMatrix in="SourceAlpha" type="matrix" values="0 0 0 0 0 0 0 0 0 0 0 0 0 0 0 0 0 0 127 0" result="hardAlpha"/>
<feOffset dy="3.11969"/>
<feGaussianBlur stdDeviation="3.11969"/>
<feColorMatrix type="matrix" values="0 0 0 0 0.117647 0 0 0 0 0.160784 0 0 0 0 0.231373 0 0 0 0.08 0"/>
<feBlend mode="normal" in2="BackgroundImageFix" result="effect1_dropShadow_1443_15060"/>
<feColorMatrix in="SourceAlpha" type="matrix" values="0 0 0 0 0 0 0 0 0 0 0 0 0 0 0 0 0 0 127 0" result="hardAlpha"/>
<feOffset dy="12.4788"/>
<feGaussianBlur stdDeviation="6.23939"/>
<feColorMatrix type="matrix" values="0 0 0 0 0.117647 0 0 0 0 0.160784 0 0 0 0 0.231373 0 0 0 0.07 0"/>
<feBlend mode="normal" in2="effect1_dropShadow_1443_15060" result="effect2_dropShadow_1443_15060"/>
<feColorMatrix in="SourceAlpha" type="matrix" values="0 0 0 0 0 0 0 0 0 0 0 0 0 0 0 0 0 0 127 0" result="hardAlpha"/>
<feOffset dy="26.5174"/>
<feGaussianBlur stdDeviation="7.79923"/>
<feColorMatrix type="matrix" values="0 0 0 0 0.117647 0 0 0 0 0.160784 0 0 0 0 0.231373 0 0 0 0.04 0"/>
<feBlend mode="normal" in2="effect2_dropShadow_1443_15060" result="effect3_dropShadow_1443_15060"/>
<feColorMatrix in="SourceAlpha" type="matrix" values="0 0 0 0 0 0 0 0 0 0 0 0 0 0 0 0 0 0 127 0" result="hardAlpha"/>
<feOffset dy="46.7954"/>
<feGaussianBlur stdDeviation="9.35908"/>
<feColorMatrix type="matrix" values="0 0 0 0 0.117647 0 0 0 0 0.160784 0 0 0 0 0.231373 0 0 0 0.01 0"/>
<feBlend mode="normal" in2="effect3_dropShadow_1443_15060" result="effect4_dropShadow_1443_15060"/>
<feBlend mode="normal" in="SourceGraphic" in2="effect4_dropShadow_1443_15060" result="shape"/>
</filter>
<filter id="filter2_f_1443_15060" x="21.7902" y="31.4006" width="225.476" height="125.938" filterUnits="userSpaceOnUse" color-interpolation-filters="sRGB">
<feFlood flood-opacity="0" result="BackgroundImageFix"/>
<feBlend mode="normal" in="SourceGraphic" in2="BackgroundImageFix" result="shape"/>
<feGaussianBlur stdDeviation="7.79923" result="effect1_foregroundBlur_1443_15060"/>
</filter>
<filter id="filter3_di_1443_15060" x="21.0541" y="65.5159" width="120.002" height="180.942" filterUnits="userSpaceOnUse" color-interpolation-filters="sRGB">
<feFlood flood-opacity="0" result="BackgroundImageFix"/>
<feColorMatrix in="SourceAlpha" type="matrix" values="0 0 0 0 0 0 0 0 0 0 0 0 0 0 0 0 0 0 127 0" result="hardAlpha"/>
<feOffset dx="12.4788" dy="6.23939"/>
<feGaussianBlur stdDeviation="7.79923"/>
<feComposite in2="hardAlpha" operator="out"/>
<feColorMatrix type="matrix" values="0 0 0 0 0 0 0 0 0 0 0 0 0 0 0 0 0 0 0.1 0"/>
<feBlend mode="normal" in2="BackgroundImageFix" result="effect1_dropShadow_1443_15060"/>
<feBlend mode="normal" in="SourceGraphic" in2="effect1_dropShadow_1443_15060" result="shape"/>
<feColorMatrix in="SourceAlpha" type="matrix" values="0 0 0 0 0 0 0 0 0 0 0 0 0 0 0 0 0 0 127 0" result="hardAlpha"/>
<feOffset dy="1.55985"/>
<feComposite in2="hardAlpha" operator="arithmetic" k2="-1" k3="1"/>
<feColorMatrix type="matrix" values="0 0 0 0 1 0 0 0 0 1 0 0 0 0 1 0 0 0 0.6 0"/>
<feBlend mode="normal" in2="shape" result="effect2_innerShadow_1443_15060"/>
</filter>
<filter id="filter4_di_1443_15060" x="131.911" y="65.5159" width="120.002" height="180.942" filterUnits="userSpaceOnUse" color-interpolation-filters="sRGB">
<feFlood flood-opacity="0" result="BackgroundImageFix"/>
<feColorMatrix in="SourceAlpha" type="matrix" values="0 0 0 0 0 0 0 0 0 0 0 0 0 0 0 0 0 0 127 0" result="hardAlpha"/>
<feOffset dx="-12.4788" dy="6.23939"/>
<feGaussianBlur stdDeviation="7.79923"/>
<feComposite in2="hardAlpha" operator="out"/>
<feColorMatrix type="matrix" values="0 0 0 0 0 0 0 0 0 0 0 0 0 0 0 0 0 0 0.1 0"/>
<feBlend mode="normal" in2="BackgroundImageFix" result="effect1_dropShadow_1443_15060"/>
<feBlend mode="normal" in="SourceGraphic" in2="effect1_dropShadow_1443_15060" result="shape"/>
<feColorMatrix in="SourceAlpha" type="matrix" values="0 0 0 0 0 0 0 0 0 0 0 0 0 0 0 0 0 0 127 0" result="hardAlpha"/>
<feOffset dy="1.55985"/>
<feComposite in2="hardAlpha" operator="arithmetic" k2="-1" k3="1"/>
<feColorMatrix type="matrix" values="0 0 0 0 1 0 0 0 0 1 0 0 0 0 1 0 0 0 0.6 0"/>
<feBlend mode="normal" in2="shape" result="effect2_innerShadow_1443_15060"/>
</filter>
<filter id="filter5_f_1443_15060" x="22.6122" y="125.968" width="227.739" height="104.892" filterUnits="userSpaceOnUse" color-interpolation-filters="sRGB">
<feFlood flood-opacity="0" result="BackgroundImageFix"/>
<feBlend mode="normal" in="SourceGraphic" in2="BackgroundImageFix" result="shape"/>
<feGaussianBlur stdDeviation="3.11969" result="effect1_foregroundBlur_1443_15060"/>
</filter>
<filter id="filter6_f_1443_15060" x="22.6119" y="106.042" width="227.737" height="137.297" filterUnits="userSpaceOnUse" color-interpolation-filters="sRGB">
<feFlood flood-opacity="0" result="BackgroundImageFix"/>
<feBlend mode="normal" in="SourceGraphic" in2="BackgroundImageFix" result="shape"/>
<feGaussianBlur stdDeviation="9.35908" result="effect1_foregroundBlur_1443_15060"/>
</filter>
<filter id="filter7_f_1443_15060" x="-8.58475" y="77.5749" width="290.132" height="184.482" filterUnits="userSpaceOnUse" color-interpolation-filters="sRGB">
<feFlood flood-opacity="0" result="BackgroundImageFix"/>
<feBlend mode="normal" in="SourceGraphic" in2="BackgroundImageFix" result="shape"/>
<feGaussianBlur stdDeviation="18.7182" result="effect1_foregroundBlur_1443_15060"/>
</filter>
<filter id="filter8_i_1443_15060" x="24.1719" y="131.899" width="224.617" height="92.7217" filterUnits="userSpaceOnUse" color-interpolation-filters="sRGB">
<feFlood flood-opacity="0" result="BackgroundImageFix"/>
<feBlend mode="normal" in="SourceGraphic" in2="BackgroundImageFix" result="shape"/>
<feColorMatrix in="SourceAlpha" type="matrix" values="0 0 0 0 0 0 0 0 0 0 0 0 0 0 0 0 0 0 127 0" result="hardAlpha"/>
<feOffset dy="1.55985"/>
<feComposite in2="hardAlpha" operator="arithmetic" k2="-1" k3="1"/>
<feColorMatrix type="matrix" values="0 0 0 0 1 0 0 0 0 1 0 0 0 0 1 0 0 0 0.6 0"/>
<feBlend mode="normal" in2="shape" result="effect1_innerShadow_1443_15060"/>
</filter>
<filter id="filter9_f_1443_15060" x="-0.785414" y="91.2541" width="274.534" height="158.324" filterUnits="userSpaceOnUse" color-interpolation-filters="sRGB">
<feFlood flood-opacity="0" result="BackgroundImageFix"/>
<feBlend mode="normal" in="SourceGraphic" in2="BackgroundImageFix" result="shape"/>
<feGaussianBlur stdDeviation="6.23939" result="effect1_foregroundBlur_1443_15060"/>
</filter>
<linearGradient id="paint0_linear_1443_15060" x1="136.481" y1="37.4366" x2="136.481" y2="127.128" gradientUnits="userSpaceOnUse">
<stop offset="0.356522" stop-color="#1F0548" stop-opacity="0"/>
<stop offset="0.569565" stop-color="#1F0548"/>
</linearGradient>
<linearGradient id="paint1_linear_1443_15060" x1="136.481" y1="224.618" x2="136.481" y2="37.4366" gradientUnits="userSpaceOnUse">
<stop stop-color="#475569" stop-opacity="0.06"/>
<stop offset="1" stop-color="#475569" stop-opacity="0"/>
</linearGradient>
<linearGradient id="paint2_linear_1443_15060" x1="143.755" y1="12.7964" x2="129.208" y2="179.065" gradientUnits="userSpaceOnUse">
<stop stop-color="#422C84" stop-opacity="0.06"/>
<stop offset="1" stop-color="#475569" stop-opacity="0"/>
</linearGradient>
<linearGradient id="paint3_linear_1443_15060" x1="224.56" y1="19.865" x2="114.068" y2="128.417" gradientUnits="userSpaceOnUse">
<stop stop-color="white"/>
<stop offset="0.486575" stop-color="white" stop-opacity="0"/>
</linearGradient>
<linearGradient id="paint4_linear_1443_15060" x1="72.5291" y1="224.62" x2="72.5291" y2="74.875" gradientUnits="userSpaceOnUse">
<stop offset="0.28125" stop-color="#EEF0F1"/>
<stop offset="0.78125" stop-color="#F9FAFA"/>
</linearGradient>
<linearGradient id="paint5_linear_1443_15060" x1="200.438" y1="224.62" x2="200.438" y2="74.875" gradientUnits="userSpaceOnUse">
<stop offset="0.28125" stop-color="#EEF0F1"/>
<stop offset="0.78125" stop-color="#F9FAFA"/>
</linearGradient>
<linearGradient id="paint6_linear_1443_15060" x1="136.481" y1="127.91" x2="136.481" y2="224.62" gradientUnits="userSpaceOnUse">
<stop offset="0.322581" stop-color="#FAFAFB"/>
<stop offset="1" stop-color="#EEF0F1"/>
</linearGradient>
<linearGradient id="paint7_linear_1443_15060" x1="136.481" y1="104.863" x2="136.481" y2="224.621" gradientUnits="userSpaceOnUse">
<stop stop-color="#F9FAFA"/>
<stop offset="0.693396" stop-color="#EEF0F1"/>
</linearGradient>
</defs>
</svg>
